<?xml version="1.0" encoding="UTF-8" standalone="no"?>
<!-- Created with Inkscape (http://www.inkscape.org/) -->

<svg
   version="1.1"
   id="svg1"
   width="318.72"
   height="202.56"
   viewBox="0 0 318.72 202.56"
   sodipodi:docname="cowboy-ready.svg"
   inkscape:version="1.4.2 (f4327f4, 2025-05-13)"
   xmlns:inkscape="http://www.inkscape.org/namespaces/inkscape"
   xmlns:sodipodi="http://sodipodi.sourceforge.net/DTD/sodipodi-0.dtd"
   xmlns="http://www.w3.org/2000/svg"
   xmlns:svg="http://www.w3.org/2000/svg">
  <defs
     id="defs1" />
  <sodipodi:namedview
     id="namedview1"
     pagecolor="#ffffff"
     bordercolor="#000000"
     borderopacity="0.25"
     inkscape:showpageshadow="2"
     inkscape:pageopacity="0.0"
     inkscape:pagecheckerboard="0"
     inkscape:deskcolor="#d1d1d1"
     inkscape:zoom="9.5453418"
     inkscape:cx="198.00234"
     inkscape:cy="109.84415"
     inkscape:window-width="3840"
     inkscape:window-height="2054"
     inkscape:window-x="-11"
     inkscape:window-y="-11"
     inkscape:window-maximized="1"
     inkscape:current-layer="svg1" />
  <g
     id="g20"
     inkscape:label="player_BL_ready">
    <path
       id="path11"
       style="fill:#292929;stroke:none"
       d="m 135.54,105.86 1.92,0.64 c 0.76801,-1.21601 1.25389,-2.6726 2.02667,-3.84 0.55444,-0.83757 1.40136,-1.06573 2.08,-1.70667 0.75456,-0.71265 0.91969,-1.864209 2.29333,-1.439999 1.66302,0.513579 0.19331,2.573289 0.8,3.786669 0.86294,1.72588 2.70541,2.41756 4.32,2.93333 0.6518,0.20821 1.00288,0.7764 1.6,1.06667 1.93329,0.93979 3.66225,-0.73708 4.8,-2.08 0.75676,-0.89322 0.64,-1.77145 0.64,-2.88 0,-2.28986 0.8694,-6.678919 -0.96,-8.319999 -1.046,-0.93832 -4.35299,-1.09679 -5.76,-0.96 -1.25332,0.12184 -2.33501,0.94942 -3.04,1.97333 -0.50482,0.7332 -0.49466,2.20653 -1.76,2.08 -1.46222,-0.14622 -1.94578,-2.84453 -3.25333,-3.57333 -1.23336,-0.68745 -1.56795,0.73337 -2.50667,0.90667 -0.58875,0.10869 -0.78978,-0.50497 -1.28,-0.58667 -0.69797,-0.11633 -0.96819,0.48 -1.6,0.48 -0.86156,0 -1.00308,-0.85248 -1.92,-0.26667 -0.65988,0.42159 -2.08,1.65902 -2.08,2.50667 0,1.40964 1.89555,1.87007 2.02667,3.2 0.16101,1.632989 -4.92431,4.944339 -2.18667,6.559999 0.64881,0.3829 1.69722,0.16859 2.08,-0.48 0.23805,-0.40335 0.0604,-0.8671 0.21333,-1.28 0.3822,-1.03193 1.03651,-2.59475 1.65334,-3.52 0.62252,-0.93378 2.54398,-2.029649 2.34666,0 -0.0896,0.92175 -0.94269,1.72256 -1.28,2.56 -0.32729,0.81261 -0.75964,1.49141 -1.17333,2.24 m -22.4,10.88 h 0.32 c 2.21376,-2.039 3.33848,-4.53573 6.72,-4.16 1.46715,0.16302 4.29898,3.10486 2.24,4.32 -2.0906,1.23379 -3.51195,-0.8 -5.44,-0.8 0.75512,2.12807 3.13723,2.24 5.12,2.24 0.62941,0 1.5696,0.18018 2.13333,-0.16 0.97616,-0.58906 1.56061,-1.99402 2.66667,-2.34667 1.69953,-0.54188 2.71901,0.63967 4.16,1.12 2.12273,0.70759 5.04358,-1.96618 5.76,-3.73333 h 0.64 c 0.36799,1.27122 0.5054,2.82508 0.32,4.16 -0.23647,1.70264 -1.03555,3.1516 1.28,3.84 l -3.46667,2.66666 L 134.26,125.7 v 0.32 c 1.0844,1.17734 2.93815,2.49916 4.69333,1.44 1.37769,-0.83137 1.63635,-2.75867 3.30667,-1.44 h 0.32 c 0.6771,-0.67709 2.10876,-1.75602 1.86667,-2.88 -0.17088,-0.79339 -1.0875,-1.02168 -1.22667,-1.92 -0.1433,-0.92494 0.22475,-1.97856 -0.10667,-2.88 -0.52606,-1.43089 -2.97564,-1.07197 -1.81333,-2.88 l 0.64,-0.58667 c 2.28819,-1.61141 3.93393,0.86972 5.76,1.70667 1.22588,0.56186 3.01924,0.008 4.16,0.64 0.50822,0.28147 1.17992,1.09409 1.54667,1.54667 0.94983,1.17214 -0.43879,3.43867 1.65333,3.73333 2.6282,0.37016 3.54844,-2.41325 2.56,-4.48 -0.29822,-0.62354 -1.03607,-0.94801 -1.22666,-1.6 -0.24971,-0.85424 0.4917,-1.67545 0.16,-2.56 -0.27064,-0.72172 -1.2343,-1.14286 -1.81334,-1.6 h -0.32 c -2.43032,1.91866 -2.79385,-0.34855 -4.8,-1.54667 -1.00574,-0.60066 -2.3619,0.16805 -3.52,-0.53333 -1.35611,-0.82131 -2.03038,-3.0981 -3.52,-3.62667 -0.64185,-0.22776 -2.50235,-0.24995 -3.09333,0.10667 -0.53615,0.32354 -0.73821,0.86574 -1.38667,1.06667 -1.4688,0.45512 -3.10104,-0.2637 -4.48,0.26666 -0.87672,0.3372 -1.23651,1.28911 -2.24,1.38667 -1.41797,0.13786 -2.9475,-1.6377 -4.48,-1.92 0.14396,-0.78149 0.28431,-1.61022 0.96,-2.13333 0.82398,-0.63791 1.98412,-0.63732 1.92,-2.02667 -0.0221,-0.47965 -0.34007,-0.69248 -0.64,-1.01333 -0.38841,-0.41551 -0.72078,-0.98406 -1.28,-1.17334 -0.81511,-0.27588 -1.819,0.35702 -2.56,0.0533 -1.30951,-0.53668 -0.21908,-2.984849 -1.6,-3.786669 -2.38194,-1.38307 -3.67044,2.2839 -5.76,2.4 -1.56373,0.0869 -3.11156,-2.39033 -4.74667,-0.85333 -1.40415,1.319889 1.96791,3.373599 -0.0533,4.533329 -1.07097,0.61448 -1.73598,-0.55943 -2.56,-0.96 -0.90273,-0.43883 -2.48296,-0.0223 -3.04,0.8 -1.72651,2.54866 4.38107,3.41972 3.62667,6.08 -0.40345,1.42268 -1.8669,0.016 -2.82667,0.96 -2.33243,2.2942 1.4844,3.65627 2.88,4.58667 0.71924,0.47949 1.31216,1.20549 1.92,1.81333 m 4.16,-7.67999 h -0.32 l -0.64,1.28 h -0.96 l -0.64,-1.28 h -0.32 l -1.6,1.28 v -4.16 c 1.04312,0.11276 1.32268,1.07828 2.24,1.22667 0.90523,0.14643 1.17915,-0.92259 1.92,-1.17334 1.91717,-0.64889 4.17285,1.5086 3.46667,3.46667 -0.59002,1.63597 -2.64942,0.19628 -3.14667,-0.64 m 25.91997,-1.28 c 0,2.40557 1.35428,4.16 3.84,4.16 -0.3587,3.31804 -4.82846,-0.81423 -6.08,-1.44 -0.48038,-0.2402 -1.08268,-0.16 -1.6,-0.16 0.0647,-2.4594 1.82662,-2.56 3.84,-2.56 m -8.96,3.20003 -2.24,4.8 h -0.32 l -3.2,-3.52 c 0.8935,-0.37621 1.98596,-0.35298 2.88,-0.8 1.26406,-0.63203 1.51484,-1.27035 2.88,-0.48" />
  </g>
  <g
     id="g21"
     inkscape:label="player_BR_ready">
    <path
       id="path10"
       style="fill:#292929;stroke:none"
       d="m 178.74,102.02 c 0.27639,0.87521 0.52322,1.77581 1.01334,2.56 0.48633,0.77812 0.65145,1.43869 1.01332,2.24 0.34133,0.75579 2.11215,1.49057 2.4,0.32 0.3849,-1.56531 -0.88584,-3.13759 -1.33332,-4.48 -0.17365,-0.52096 -0.3509,-1.52524 0.42666,-1.70667 0.78811,-0.1839 1.52385,1.17011 1.86666,1.70667 1.18154,1.84939 1.23486,4.00972 3.89334,3.52 0,-2.5732 -0.85592,-5.63995 -3.52,-6.719999 v -0.64 c 1.25643,-0.36371 2.39545,-0.0779 2.56,-1.6 l -2.88,-2.08 -1.92,0.32 -3.84,-0.96 -1.28,1.44 -2.88,2.56 c -0.23141,-0.73281 -0.56463,-1.46468 -0.64,-2.24 -0.091,-0.93627 0.26477,-1.98589 -0.37334,-2.77333 -1.33766,-1.65072 -2.7617,-1.70667 -4.74666,-1.70667 -1.27019,0 -3.67346,-0.46393 -4.8,0.16 -1.86889,1.03508 -1.92,3.46573 -1.92,5.28 0,1.66225 -0.38818,3.894879 0.32,5.439999 0.68191,1.48779 1.6525,1.4492 2.88,2.08 0.61768,0.31742 0.97887,0.96943 1.6,1.28 0.78059,0.39029 2.02945,0.16 2.88,0.16 0.66693,0 1.8751,0.23682 2.45334,-0.16 0.61811,-0.42419 1.59363,-1.67048 1.70666,-2.4 0.13977,-0.90206 -0.46164,-2.76204 0.37334,-3.41333 1.36068,-1.061329 2.10117,1.50335 2.88,1.97333 0.58352,0.35212 1.28873,0.007 1.86666,-0.16 m -9.91997,13.75996 c -0.45928,-1.13293 -2.15502,-2.707 -3.52,-2.56 -1.20408,0.12967 -2.57723,2.01626 -2.13334,3.2 0.90397,2.41061 3.91826,1.39802 5.65334,2.02667 0.95141,0.34472 2.04393,1.51727 2.88,2.13333 h 0.32 c 1.39623,-1.39624 2.57881,-3.14865 2.88,-5.12 0.20117,-1.3167 0.54453,-2.11271 -0.96,-2.56 v -0.64 c 2.58459,-0.74818 5.11133,1.86251 5.81334,4.16 0.25041,0.81952 1.60516,2.40514 0.21332,3.04 -0.53924,0.24597 -2.37498,-0.48 -3.14666,-0.48 -0.27562,1.49618 -1.18004,2.75567 -1.70666,4.16 -0.28795,0.76785 -0.95039,1.35265 -0.85334,2.24 0.15344,1.40287 1.9725,0.75156 2.88,1.06666 1.91998,0.66666 5.13084,4.03004 7.25334,2.34668 1.76397,-1.39902 1.72307,-3.9959 -0.85334,-4.64 -0.87916,-0.2198 -1.79187,0.60346 -2.56,0.90666 -0.70519,-2.43612 1.11643,-2.55287 2.08,-4.48 0.8127,-1.6254 -0.50502,-3.59485 0.85334,-5.12 1.50643,-1.69141 3.09648,0.65341 5.06666,0.32 0.92025,-0.15573 1.2326,-1.28 2.24,-1.28 1.29924,0 1.04283,1.09898 1.33334,1.92 0.2157,0.60959 1.25211,1.65867 1.86666,1.86667 1.75443,0.59381 3.98283,-0.26667 5.76,-0.26667 l 1.28,-1.92 c -0.48945,0 -1.10223,-0.095 -1.54666,0.16 -0.66037,0.3789 -0.77141,1.07909 -1.65334,1.06667 -1.03682,-0.0146 -3.0866,-1.30686 -2.72,-2.50667 0.62992,-2.06156 3.42352,-2.78702 5.28,-2.13333 1.50016,0.52823 2.96156,2.9495 4.16,4.05333 h 0.32 c 0.61406,-0.61407 1.21039,-1.36402 1.92,-1.86667 1.20846,-0.856 4.54016,-1.56579 3.36,-3.89333 -0.26277,-0.51824 -0.83252,-1.13114 -1.44,-1.17333 -0.83937,-0.0583 -1.85301,0.83881 -1.92,-0.74667 -0.0948,-2.24404 3.17945,-2.60054 3.78666,-4.48 0.54746,-1.69453 -1.83725,-2.71653 -3.14666,-2.08 -1.31381,0.63866 -1.65303,1.12 -3.2,1.12 0,-0.71258 -0.13627,-1.57338 0.16,-2.24 0.31361,-0.70565 1.16852,-1.32594 0.64,-2.186669 -1.25478,-2.0435 -3.54506,0.58667 -4.96,0.58667 -2.13764,0 -3.31826,-3.81778 -5.76,-2.4 -1.3809,0.8018 -0.29051,3.249989 -1.6,3.786669 -0.85916,0.35211 -2.33578,-0.71142 -3.04,0.26666 -0.60588,0.8415 -0.2509,3.61659 0.26666,4.42667 0.35828,0.5608 0.93455,0.891 1.01334,1.6 0.0654,0.58854 -0.0748,2.50022 -0.8,2.66667 -1.05771,0.24275 -2.04896,-1.85082 -3.2,-2.02667 -3.18144,-0.48605 -5.4368,3.20798 -8.64,2.18667 -0.63131,-0.20128 -0.84937,-0.72331 -1.33334,-1.12 -1.25916,-1.03209 -3.41707,-1.95607 -5.06666,-1.28 -0.79738,0.3268 -0.56842,1.16502 -0.90666,1.81333 -0.44898,0.86054 -1.32953,1.21212 -1.54668,2.24 -0.38848,1.83876 1.35867,2.88262 -1.06666,3.84 m 36.8,-9.59999 v 4.16 l -1.6,-1.28 h -0.32 l -0.64,1.28 -1.6,-1.28 c -0.35816,0.34874 -0.79371,0.93089 -1.28,1.12 -2.9741,1.15659 -2.68566,-2.81717 -0.64,-3.84 1.609,-0.8045 2.20264,0.85665 3.52,1.06667 0.8507,0.13561 1.57897,-1.12341 2.56,-1.22667 M 189.3,113.54 l -2.88,-0.48 -2.24,-1.76 c 1.46912,-2.00332 6.41199,0.008 5.12,2.24" />
  </g>
  <g
     id="g19"
     inkscape:label="player_TR_ready">
    <path
       id="path1"
       style="fill:#292929;stroke:none"
       d="m 190.26,56.260001 v 0.32 c -0.38684,0.23002 -0.61674,0.25854 -0.90666,0.64 -1.83269,2.41141 1.12455,3.01373 2.18666,4.8 -1.04096,0.30133 -2.20326,0.197 -3.2,0.64 -1.06373,0.47277 -2.14437,1.03841 -3.2,1.54667 -0.3941,0.18974 -0.80877,0.69333 -1.28,0.69333 -0.5757,0 -1.06943,-0.6691 -1.6,-0.85333 -0.80521,-0.27959 -2.75166,-0.33084 -3.52,0.0533 -2.93855,1.46928 -1.35641,5.63542 -4.48,6.72 -1.13889,0.39545 -1.6199,-1.40693 -2.56,-1.70667 -1.61594,-0.51523 -2.50822,1.12 -3.84,1.12 -0.92121,0 -1.82771,-1.08564 -2.88,-1.17333 -2.54959,-0.21247 -3.22855,2.90783 -2.88,4.8 l 2.24,-0.64 c 0.23553,1.27856 -0.0823,3.35546 0.48,4.48 1.10703,2.21406 4.06482,2.04556 4.85334,-0.32 0.40609,-1.2183 -0.55105,-1.3562 -1.01334,-2.24 -0.33117,-0.63312 -0.0189,-1.30205 0.16,-1.92 0.79961,0.46294 1.53203,1.37994 2.56,1.28 0.85357,-0.083 1.20619,-0.77302 1.92,-1.12 1.0007,-0.48646 2.44234,-0.0552 3.52,-0.16 0.47986,-0.0466 1.12986,-0.39919 1.6,-0.16 1.19106,0.60598 -0.51473,1.60131 -0.48,2.4 0.0429,0.9871 0.97357,1.60164 1.12,2.56 0.21164,1.3853 -0.85746,3.38973 -0.32,4.48 1.20633,2.44711 2.25574,0.18226 3.84,0.21333 0.31277,0.006 0.55514,0.51833 0.74666,0.69334 1.35762,1.24058 6.01703,3.21368 6.50668,0.0533 0.38633,-2.49358 -1.78437,-1.73604 -3.09334,-2.4 -0.61859,-0.31378 -1.79443,-1.44439 -2.08,-2.08 -0.48904,-1.08851 1.05639,-2.05499 1.12,-3.2 0.13795,-2.48306 -2.66541,-4.4106 -2.24,-6.72 0.63992,0.25943 1.23014,0.85387 1.92,0.96 2.9627,0.4558 5.46342,-1.51185 7.36,-3.52 0.90977,-0.96328 0.92613,-2.1694 2.24,-2.56 0.79475,2.67321 6.50295,0.34728 8,-0.96 0.57635,-0.50329 1.49045,-1.38242 1.44,-2.24 -0.0594,-1.01061 -1.06027,-0.94127 -1.76,-0.64 -1.74578,0.75165 -2.43301,2.26843 -4.48,2.24 -0.80494,-0.0112 -2.13334,-0.16926 -2.13334,-1.28 0,-1.08065 1.86883,-2.33695 2.77334,-2.61333 2.3315,-0.7124 4.84818,0.70771 7.04,-0.0533 0.665,-0.23091 2.97807,-1.30437 3.36,-1.86666 0.901,-1.32646 -0.16922,-3.64893 -1.44,-4.26667 -1.10394,-0.53664 -2.37748,0.7098 -3.52,0.8 0.0239,-0.90607 0.0716,-2.1898 0.96,-2.72 1.07963,-0.6443 3.52729,-1.08254 3.14666,-3.04 -0.0999,-0.51386 -0.54287,-0.93681 -0.90666,-1.28 -0.279,-0.26321 -0.58851,-0.65554 -0.96,-0.8 -2.3081,-0.8976 -2.29652,2.87071 -4.16,2.24 -0.79285,-0.26835 -1.80101,-1.62125 -1.92,-2.4 -0.11234,-0.73533 0.39111,-2.25312 -0.64,-2.50667 -1.93269,-0.47525 -3.05365,2.4311 -4.48,2.93334 -1.72832,0.60856 -3.23269,-1.98856 -4.8,-1.22667 -1.05334,0.51204 -2.01055,1.86629 -1.44,3.04 0.36625,0.75342 1.41568,1.27165 0.96,2.24 -0.55996,1.1899 -1.82422,0.71126 -2.72,1.33333 -3.62937,2.5204 0.89613,4.29032 2.88,5.38667 m 9.28,-4.48 h 0.64 l 0.64,-1.6 c 1.16551,0.33738 3.38277,1.95724 2.82666,3.46667 -0.54892,1.48992 -1.85598,0.22904 -2.18666,-0.58667 -1.37053,1.33447 -1.82947,1.33447 -3.2,0 v 2.24 c -0.43574,0.18347 -0.75924,0.41643 -1.28,0.32 -4.69762,-0.86992 0.63609,-8.58575 2.56,-3.84 m -25.28,6.72 3.14666,1.65333 2.34668,2.13334 2.82666,-0.26667 -2.56,-2.88 v -0.32 c 2.70328,-1.28051 3.88633,1.16178 5.12,3.2 0.42268,-0.21134 0.93272,-0.3994 1.28,-0.74667 2.46432,-2.46433 -2.88,-3.82246 -2.88,-5.97333 0,-0.56642 0.78877,-1.3285 0.96,-1.92 l -4.16,-1.6 -3.2,1.44 -1.28,0.8 -1.6,-0.96 -0.96,4.48 c -0.6233,-0.8459 -1.56726,-1.67555 -2.08,-2.56 -0.5182,-0.89392 -0.76918,-2.06442 -1.54666,-2.82667 -0.71605,-0.70201 -1.92732,-0.3245 -2.77334,-0.16 -1.83918,0.35762 -5.32287,1.22727 -6.02666,3.30667 -0.95842,2.8317 1.10328,5.31626 2.18666,7.68 0.5484,1.19651 1.03481,2.51915 2.29334,3.2 2.50881,1.35722 7.14658,-0.50269 8.42666,-2.88 0.51516,-0.95674 -0.17324,-1.92668 -0.16,-2.88 0.009,-0.6698 0.41779,-1.31685 0.64,-1.92 m 12.48,7.68 c 0.46326,-0.71596 0.78826,-0.84638 1.6,-1.17333 0.62051,-0.24993 1.27184,-0.91802 1.92,-1.01334 1.03451,-0.15214 1.2609,1.4804 0.8,2.13334 -0.85348,1.20909 -3.38129,0.72031 -4.32,0.0533 m -6.71999,0.32005 c 0.34574,0.87591 -0.15996,1.38682 0.0533,2.24 0.40697,1.62788 5.29625,4.38809 2.18666,5.76 -1.67953,-2.30158 -6.11957,-4.28042 -3.30666,-7.09333 0.40342,-0.40342 0.59994,-0.6133 1.06666,-0.90667" />
  </g>
  <g
     id="g18"
     inkscape:label="player_TL_ready">
    <path
       id="path2"
       style="fill:#292929;stroke:none"
       d="m 113.78,58.820001 c 0.58742,3.18888 4.9103,5.16352 8,5.12 0.90476,-0.0127 1.45974,-1.21769 2.24,-1.06667 0.92885,0.17977 1.82496,1.42903 2.88,1.70667 0.18547,-0.88096 0.71561,-2.37771 1.92,-2.13333 0.74058,0.15026 0.98766,1.0036 1.6,1.33333 0.68005,0.36618 1.79365,0.25816 2.56,0.48 v 0.32 l -3.52,0.8 -3.2,1.44 -0.64,-1.6 h -0.64 c -1.06722,2.53463 1.28237,1.95661 2.88,2.66667 0.68297,0.30354 1.20265,0.91077 1.92,1.12 1.04579,0.30502 2.08261,-0.22503 2.72,1.01333 0.79652,1.54754 -1.2968,1.66275 -1.44,2.88 -0.21041,1.78848 1.41289,3.63674 2.56,4.8 0.4643,0.47084 1.52465,1.15463 1.17333,1.92 -0.42805,0.93253 -1.6935,0.52391 -2.45333,0.64 -1.11348,0.17012 -2.66528,1.6148 -2.4,2.88 0.11071,0.52802 0.70876,0.75705 1.12,1.01333 1.74644,1.08836 3.85852,0.65187 5.33333,-0.74666 0.49745,-0.47172 1.3451,-1.82654 2.02667,-1.97334 0.99425,-0.21415 1.99573,1.58761 3.04,0.37334 0.51863,-0.60307 0.69849,-2.12376 0.32,-2.82667 -0.49261,-0.91485 -1.67291,-1.4706 -2.29333,-2.29333 -0.43794,-0.58074 -0.28023,-1.25381 -0.58667,-1.86667 -0.3457,-0.69141 -1.11424,-1.06385 -1.06667,-1.92 0.1069,-1.92399 2.46052,-3.04004 4.10667,-2.88 0.94649,0.092 1.72756,0.56568 2.56,0.96 v 0.32 c -2.7981,1.66373 -0.33169,3.2461 0.90667,4.85333 0.43874,0.56943 0.1494,1.28011 0.53333,1.81334 0.49963,0.69392 2.69866,0.31778 3.30667,-0.10667 0.66949,-0.46737 0.54958,-1.47914 1.33333,-1.92 1.12988,-0.63556 2.59943,-0.46316 3.14667,-2.08 0.37825,-1.11756 0.43631,-4.48 -1.22667,-4.48 -0.65184,0 -1.10896,0.51054 -1.6,0.85333 -0.23644,0.16507 -0.62331,0.28304 -0.8,0.53334 -0.54902,0.77778 -0.3728,1.61823 -1.12,2.45333 l -0.90667,-3.46667 -1.65333,-0.85333 -1.6,-1.38667 -2.88,-1.44 -2.24,-1.76 h -2.56 l -1.38667,0.58667 -1.22666,-2.08 -2.82667,-0.58667 -2.24,-1.06666 -3.52,-0.42667 v -0.64 c 1.99382,-0.62963 4.97806,-1.75026 3.14667,-4.16 -0.28987,-0.38142 -0.51987,-0.41001 -0.90667,-0.64 1.47406,-1.43527 6.24626,-2.70733 3.2,-5.44 -0.90297,-0.81002 -2.91193,-0.40488 -3.14667,-1.92 -0.12747,-0.82277 0.75092,-1.27046 1.06667,-1.92 0.57454,-1.18192 -0.39204,-2.51602 -1.44,-3.04 -1.6601,-0.83005 -3.22144,1.7193 -5.12,1.06667 -1.3644,-0.46901 -2.01717,-2.90829 -3.84,-2.82667 -1.39141,0.0623 -0.82239,1.67181 -0.96,2.56 -0.11605,0.74908 -1.24573,2.11373 -1.97333,2.4 -1.77425,0.69807 -2.01259,-3.59453 -4.37334,-2.24 -0.29843,0.17123 -0.50719,0.5072 -0.74666,0.74667 -0.21476,0.21475 -0.62405,0.45851 -0.74667,0.74666 -1.3488,3.16967 4.27124,2.85466 3.89333,5.38667 -0.25655,1.7189 -2.15864,-0.10066 -3.09333,0 -1.75223,0.1887 -2.14359,2.45778 -1.92,3.84 0.1748,1.08056 1.10589,0.99902 1.92,1.44 0.88228,0.4779 1.51471,1.01838 2.56,1.12 2.29711,0.22333 4.91958,-1.18754 7.04,0.37333 2.456,1.80789 1.36565,4.3195 -1.6,3.41334 -1.95932,-0.59868 -2.8247,-3.15312 -5.12,-2.18667 m 3.84,-9.92002 0.64,1.6 h 0.64 c 0.17165,-0.42341 0.27253,-0.88975 0.69333,-1.17333 3.77794,-2.546 5.02828,6.56349 0.58667,4.69333 v -2.24 h -0.64 l -0.64,1.28 -1.6,-1.28 h -0.32 l -0.64,1.28 c -3.24145,-0.25591 -0.71125,-3.94474 1.28,-4.16 m 16.32,3.2 1.28,1.6 c -0.98376,0.93058 -2.34395,2.10588 -2.56,3.52 -0.20914,1.36891 0.0919,3.1351 1.92,2.50667 1.20961,-0.4158 2.00042,-3.79624 3.84,-2.66667 1.44227,0.88559 -1.34371,2.38795 -1.76,3.09333 -0.47505,0.80495 -0.20747,2.08296 0.8,2.18667 2.23288,0.22985 2.30758,-2.47288 3.52,-3.46667 0.58422,-0.47887 1.26451,-0.18783 1.86667,-0.53333 0.46991,-0.26962 0.67765,-1.03971 1.33333,-0.90667 0.58266,0.11822 1.48506,1.11101 1.49333,1.70667 0.0169,1.21471 -1.4178,1.73347 -1.06666,3.2 0.41109,1.71692 1.99971,2.35156 3.41333,2.98667 1.62833,0.73157 3.27491,1.95109 5.12,0.74666 2.52798,-1.65021 3.61344,-4.34446 4.8,-6.93333 0.35252,-0.76915 1.04477,-1.32177 0.96,-2.24 -0.2124,-2.30098 -3.11714,-3.26525 -4.8,-4.10667 -0.77151,-0.38576 -1.3523,-0.9147 -2.24,-1.01333 -1.61899,-0.17989 -2.61948,0.99626 -3.46667,2.24 -0.39208,0.5756 -1.07298,1.80899 -1.97333,1.44 -0.9909,-0.4061 -0.27499,-1.70839 -1.01333,-2.24 -0.51035,-0.36745 -1.29337,-0.0572 -1.86667,-0.32 -1.30148,-0.59651 -2.4878,-1.9335 -3.84,-2.34667 -1.58539,-0.48442 -2.49673,0.67224 -3.84,1.12 -0.66782,0.22261 -1.27283,0.15418 -1.92,0.42667 m 0.31997,21.44002 v 0.32 l 0.96,1.6 c -1.81816,0.7177 -3.13049,-1.41698 -2.50667,-3.14667 0.23914,-0.66308 0.97995,-0.93065 1.17334,-1.65333 0.2756,-1.02985 -0.89863,-2.28934 0.37333,-3.04 1.35175,-0.79776 2.75905,0.32681 2.56,1.76 -0.14707,1.05892 -1.71872,3.61564 -2.56,4.16" />
  </g>
</svg>
