<?xml version="1.0" encoding="UTF-8" standalone="no"?>
<!-- Created with Inkscape (http://www.inkscape.org/) -->

<svg
   version="1.1"
   id="svg1"
   width="318.72"
   height="202.56"
   viewBox="0 0 318.72 202.56"
   sodipodi:docname="fire-actions.svg"
   inkscape:version="1.4.3 (0d15f75, 2025-12-25)"
   xmlns:inkscape="http://www.inkscape.org/namespaces/inkscape"
   xmlns:sodipodi="http://sodipodi.sourceforge.net/DTD/sodipodi-0.dtd"
   xmlns="http://www.w3.org/2000/svg"
   xmlns:svg="http://www.w3.org/2000/svg">
  <defs
     id="defs1" />
  <sodipodi:namedview
     id="namedview1"
     pagecolor="#ffffff"
     bordercolor="#000000"
     borderopacity="0.25"
     inkscape:showpageshadow="2"
     inkscape:pageopacity="0.0"
     inkscape:pagecheckerboard="0"
     inkscape:deskcolor="#d1d1d1"
     inkscape:zoom="4.7813887"
     inkscape:cx="136.88492"
     inkscape:cy="83.134843"
     inkscape:window-width="2086"
     inkscape:window-height="1230"
     inkscape:window-x="435"
     inkscape:window-y="170"
     inkscape:window-maximized="0"
     inkscape:current-layer="g13"
     showguides="true"
     showgrid="false" />
  <g
     id="g6"
     inkscape:label="step_on_fire">
    <path
       style="fill:#292929;stroke:none"
       d="m 154.74,136.26 c -0.59696,-0.25135 -1.20308,-0.519 -1.86667,-0.16 -0.69476,0.37586 -1.01352,1.2498 -1.97333,1.01334 -0.48367,-0.11917 -0.74636,-0.52559 -1.06667,-0.85334 -1.96321,-2.00887 -1.34614,-4.36311 1.06667,-5.76 0.18744,0.64752 0.15423,1.61889 0.48,2.18666 0.90815,1.58277 3.05782,2.25948 4.64,1.22668 0.79986,-0.52214 1.36049,-1.67242 2.24,-2.02668 0.87703,-0.35324 1.29096,0.77488 2.24,0.16 1.29285,-0.83763 1.07504,-2.38518 2.56,-2.82666 l 0.64,4.8 h 0.32 c 0.0376,-1.42885 0.85068,-1.70137 1.44,-2.88 0.40404,-0.8081 0.11891,-1.40179 0.8,-2.13334 0.51338,-0.55141 1.41984,-1.79192 2.08,-0.74666 1.1182,1.7705 -0.8,4.0234 -0.8,5.76 l 1.28,-1.12 2.88,-1.12 h 0.32 c 1.70584,3.60121 -2.72064,4.24067 -4.48,6.08 2.16123,1.08062 4.87346,0.7765 6.08,-1.6 0.42514,-0.8374 0.12717,-1.716 0.37334,-2.56 0.21334,-0.73147 0.87938,-1.19809 1.12,-1.92 0.54162,-1.62486 -0.93066,-2.82371 -2.13334,-3.52 l -1.17334,1.97334 L 170.58,128.26 169.67334,124.74 168.18,122.5 h -0.64 l -1.92,3.84 c -0.9657,-0.55909 -2.84525,-1.84787 -2.45334,-3.2 0.17184,-0.59283 0.66461,-1.01494 0.85334,-1.6 -1.69828,0 -4.69932,1.80355 -4.48,3.84 0.12859,1.19403 1.94352,1.7131 1.12,3.2 -1.13207,2.04402 -2.81295,-0.3675 -3.04,-1.6 -1.73122,0.56011 -1.66216,3.54744 -2.93333,4.74666 -1.00283,0.94606 -2.18667,-0.0678 -2.18667,-1.22666 0,-1.01183 0.87313,-1.65939 1.17333,-2.56 0.3468,-1.04037 0.1851,-2.57373 -0.21333,-3.52 h -0.64 l -0.64,1.92 h -0.64 l -1.6,-2.56 1.12,-1.92 -0.16,-1.6 c -2.19689,0.63594 -3.85476,3.12264 -3.14667,5.44 0.27547,0.90155 1.53475,1.50681 1.06667,2.56 -1.03619,2.33142 -4.30966,5.0082 -2.72,7.94666 1.76275,3.25844 6.87775,3.09722 8.64,0.0533"
       id="path109"
       inkscape:label="step_fire" />
  </g>
  <g
     id="g3"
     inkscape:label="player_on_fire">
    <path
       id="path6"
       style="fill:#292929;stroke:none"
       d="m 176.29858,141.13587 c -0.98797,-0.20799 -1.62625,-0.86209 -2.56,-1.17334 -1.88623,-0.62873 -3.95457,0.1914 -5.01334,1.81334 -0.5816,0.89096 -0.63762,1.72282 -1.38666,2.56 v 0.32 l 3.52,4.48 -0.8,1.92 -1.44,4.16 c 1.54272,-0.54742 1.72815,-1.72924 2.61334,-2.88 0.37145,-0.48289 0.96686,-0.67 1.17332,-1.28 0.81609,-2.41115 -0.38307,-4.48 -2.82666,-4.48 0,-1.53472 0.38106,-1.76213 1.12,-2.98666 0.27707,-0.45916 0.0693,-1.01981 0.32,-1.49334 0.91656,-1.73128 2.18094,-0.66979 3.04,0.32 0.27231,0.31374 0.61326,0.57586 0.8,0.96 0.62131,1.27812 -0.99898,2.27523 -1.12,3.52 -0.12742,1.31057 0.59588,1.55801 1.12,2.56 0.28018,0.53562 0.31059,1.33476 0.48,1.92 h 0.64 l 0.21334,-2.24 -0.96,-1.92 2.02666,-2.56 v -0.32 l -0.96,-3.2 M 163.06,167.94004 c -0.29021,2.53929 -3.05088,2.88 -5.12,2.88 -0.66674,0 -1.95061,0.25582 -2.4,-0.37334 -0.9156,-1.28184 1.81904,-3.26018 3.04,-2.66666 0.56975,0.27695 0.94049,0.9659 1.6,1.06666 0.88791,0.13566 1.85596,-0.87971 2.88,-0.90666 M 154.74,155.78 c 0.18541,0.44034 0.31091,0.48698 0.32,0.96 0.0637,3.31349 -3.3946,-0.29523 -0.32,-0.96 m 9.6,5.44004 c -0.025,0.95037 -0.93332,4.08488 -2.24,3.68 -0.97687,-0.3027 -1.46871,-1.44686 -2.29334,-1.92 -1.16207,-0.66676 -1.73133,-0.0457 -1.86666,-1.76 l 2.56,-1.6 2.24,1.44 1.6,0.16 m -8,-8.32004 c 0.62512,1.58366 2.86982,3.03717 0.64,4.48 l -1.6,-4.48 h 0.96 m 5.12,3.84 c 0.11389,-0.61822 0.19609,-1.33536 0.42666,-1.92 0.30543,-0.77449 1.8024,-2.33043 2.61334,-1.22666 1.24139,1.68966 -1.68475,3.5033 -3.04,3.14666 m -1.28007,-2.24 0.64,2.24 -1.28,0.32 v -2.56 h 0.64 m -13.75991,7.03996 0.32,0.32 -0.32,-0.32 m 13.11999,-12.47992 -0.64,-1.28 -1.28,1.28 -1.6,-1.28 h -0.32 l -0.48,2.50666 -1.33333,1.97334 -0.26667,1.86666 -2.08,0.69334 c -0.4783,-1.65231 0.55827,-1.74576 0.85333,-3.2 0.17284,-0.85188 -0.74314,-0.95957 -1.01333,-1.6 -0.59268,-1.40488 1.30448,-1.28 2.08,-1.28 l -2.24,-3.2 c 0.85651,-0.36064 2.84033,-0.69889 3.73333,-0.16 0.59807,0.3609 0.85532,1.19674 1.70667,1.06666 1.3849,-0.21158 2.01426,-2.68337 3.52,-2.45332 1.2544,0.19164 2.31272,2.34545 1.76,3.46666 -0.47293,0.95938 -1.43209,1.39623 -2.4,1.6 M 146.74,170.5 l -0.96,-4.16 -0.37333,-2.4 -2.18667,-0.16 -1.28,-5.44 h 2.56 l 0.32,-1.28 h 0.64 l -0.32,2.24 2.56,1.92 c 1.69238,-1.09507 0.71072,-2.05403 -0.21333,-3.25334 -1.03484,-1.3431 -1.35967,-2.90063 -3.62667,-2.13332 -0.76422,0.25865 -1.435,1.26041 -1.92,1.86666 -0.31039,0.38799 -0.86298,0.61679 -1.12,1.01334 -1.82425,2.81455 2.50103,5.09428 3.52,6.98666 0.4194,0.77888 -0.0447,1.75066 0.21333,2.56 0.28036,0.87929 1.4592,1.78273 2.18667,2.24 m 11.19997,-9.6 c -0.95144,0.27541 -1.96148,0.10543 -2.88,0.37334 -2.20018,0.64172 -4.53575,2.40073 -5.97333,4.21333 -1.45688,1.83694 -0.24859,5.05645 1.81333,5.65333 0.33327,-1.15129 -0.39655,-3.32371 1.17333,-3.62666 0.46174,-0.0891 1.20916,0.10666 1.70667,0.10666 l -1.28,-1.6 v -0.64 l 2.24,-1.54666 3.2,2.18666 c -0.80906,0.2555 -1.55359,0.49853 -2.24,1.01334 -0.48162,0.36121 -1.09142,0.78549 -1.44,1.28 -2.71916,3.8574 3.95432,4.75709 5.28,6.98666 -2.48105,0.7182 -4.79692,-0.0881 -6.56,2.34666 -1.34917,1.86314 1.06628,2.74314 1.97333,4.05334 0.3971,0.57359 0.40746,1.37722 1.06667,1.76 0.51434,0.29863 1.66697,0.25269 2.24,0.16 2.54082,-0.41102 -0.30596,-2.73701 -0.10666,-3.52 0.19684,-0.77332 1.20402,-0.3619 1.70666,-0.32 1.02606,0.0855 2.46207,0.0674 3.04,-0.96 0.40152,-0.71381 0.33477,-2.78963 0,-3.52 -0.36082,-0.78727 -1.16187,-1.27426 -1.06666,-2.24 0.105,-1.06514 1.46371,-1.97658 2.18666,-2.66666 0.2882,-0.27512 0.64055,-0.86422 1.01334,-1.01334 0.87063,-0.34826 1.31826,0.76965 1.12,1.44 -0.25951,0.87738 -2.35533,2.6666 -0.53334,3.41334 2.47701,1.01517 5.19094,-2.63096 6.66666,-4.10668 0.81274,-0.81272 1.98932,-1.55572 1.33334,-2.82666 -1.25957,-2.44038 -3.59609,0.79332 -4.74666,-0.0533 -0.55336,-0.40719 -0.50859,-1.29983 -1.06668,-1.75999 -1.07082,-0.88296 -2.89039,-0.68462 -1.70666,-2.66667 0.68252,-1.14281 2.78883,-3.31862 3.84,-1.28 0.37695,0.73105 -0.39115,1.53928 0.48,2.08 1.31406,0.81563 2.08137,-0.9709 3.2,-0.8 0.78801,0.12039 1.61654,1.38748 2.50666,0.8 1.39018,-0.91752 0.13477,-4.12073 -1.22666,-4.48 -0.72832,-0.19219 -1.18949,0.50263 -1.92,0.32 -1.43262,-0.35817 -2.95084,-2.10124 -4.48,-2.08 -1.34978,0.0188 -2.16203,1.52109 -3.2,2.08 -0.76834,0.41372 -1.77773,-0.0159 -2.56,-0.16 1.12178,-1.12179 2.69182,-2.23391 3.09334,-3.84 0.2524,-1.00962 -0.40799,-2.32608 -0.0533,-3.2 0.52805,-1.30125 2.28557,-2.35409 1.28,-4.10666 -0.2932,-0.51102 -1.20771,-1.40458 -1.76,-1.6 -0.5908,-0.20906 -1.44264,0.081 -1.76,-0.69334 -0.49465,-1.20692 1.44365,-1.75199 2.02666,-2.34666 0.61924,-0.63163 0.38697,-1.70151 0.16,-2.45334 -0.0901,-0.29835 -0.2074,-0.61484 -0.48,-0.8 -1.73535,-1.17873 -3.1109,2.27468 -5.06666,1.76 0.32912,-0.55352 1.01061,-1.05427 1.22666,-1.65334 0.49656,-1.37682 -1.42912,-3.46213 -2.82666,-3.09332 -1.75264,0.4625 -2.57282,2.83306 -4.16,3.62666 -2.17979,1.0899 -5.97677,-1.22622 -7.14667,2.08 -0.39593,1.11892 1.31579,1.86538 0.90667,2.88 -0.43503,1.07887 -3.49759,1.12605 -2.88,2.88 0.60504,1.71832 2.20766,1.18987 3.36,0.74666 0.40068,-0.1541 0.96564,-0.18151 1.01333,0.42668 0.0574,0.73188 -1.23686,1.54303 -1.65333,2.02666 -1.2767,1.48262 -0.77151,3.11365 0.42667,4.48 0.98898,1.12779 2.10313,1.51398 3.41333,2.02666 0.61782,0.24176 0.99009,0.84147 1.6,1.06668 1.79854,0.66406 3.29416,-0.6077 4.48,1.38666" />
  </g>
  <g
     id="g2"
     inkscape:label="roof_fire">
    <path
       style="fill:#292929;stroke:none"
       d="m 123.7,83.780001 -0.64,3.84 c -1.02856,-0.10827 -2.46116,-1.59652 -3.46667,-1.01333 -0.70952,0.41152 -0.37333,2.2292 -0.37333,2.93333 0,2.41589 0.34906,5.39791 3.52,4.48 -1.06612,-1.84149 -2.59608,-2.46444 -1.92,-4.8 l 1.6,1.28 h 0.32 l 2.56,-3.2 0.96,4.16 2.24,0.21333 3.84,-2.45333 -0.64,3.52 c 3.47852,0 5.62322,-2.46304 6.72,-5.44 1.25735,0.52941 2.0299,0.34755 2.56,-0.96 l 1.28,2.56 c -1.51113,0.27836 -2.10402,1.14648 -2.56,2.56 2.52853,0 3.91915,-2.37207 3.41333,-4.8 -0.23177,-1.11251 -1.11942,-2.02941 -1.81333,-2.88 h -0.32 l -2.24,2.66667 -1.28,-0.58667 -1.6,0.53333 -1.49333,2.56 -2.34667,-1.97333 h -0.32 l -2.24,2.24 -5.76,-5.44"
       id="path63"
       inkscape:label="roof_fire_left" />
    <path
       style="fill:#292929;stroke:none"
       d="m 171.69997,88.580071 h 0.32 l 1.76,-2.61333 0.48,-2.50667 h 0.64 c 0.44359,2.40799 -0.0483,7.2567 3.84,6.98667 1.23916,-0.0861 1.78256,-1.2204 2.88,-1.54667 0.20496,1.11264 0.59123,3.18179 2.24,2.82667 0.83197,-0.17919 0.92561,-1.40736 1.92,-0.85334 0.84141,0.46879 1.07815,1.45148 1.70666,2.08 0.84334,0.84333 1.964,1.06667 3.09334,1.06667 -0.43119,-1.63849 -1.37615,-2.38128 0,-3.84 0.3127,-0.33146 0.75701,-0.86477 1.28,-0.74667 0.69598,0.15716 0.65301,1.22246 1.06666,1.65334 1.44965,1.51004 2.25787,-0.80557 2.45334,-1.86667 l 3.94666,1.92 -0.10666,1.92 -2.24,0.64 c 1.29738,1.35633 4.27834,-0.95789 4.74666,-2.56 0.33858,-1.1583 -0.88641,-1.89627 -1.17332,-2.88 -0.47342,-1.62314 0.11006,-3.45007 -0.37334,-5.12 h -0.64 c -0.5023,1.59061 -1.09748,4.29237 -2.88,4.48 l -0.64,-3.52 -2.77334,3.89333 -2.98666,-0.85333 -2.45334,1.86667 -2.98666,-2.02667 c -0.93476,1.44462 -1.15471,0.47448 -2.24,-0.16 -0.78236,-0.45739 -2.01055,-0.8912 -2.88,-1.12 l -0.64,1.92 c -4.20893,-1.2513 -1.97014,-6.77683 -2.88,-9.92 -2.93539,0.77247 -2.81096,3.95285 -3.62666,6.4 -0.5998,1.79946 -1.8367,2.51325 -0.85334,4.48"
       id="path51"
       inkscape:label="roof_fire_right" />
    <path
       style="fill:#292929;stroke:none"
       d="m 158.26001,64.259921 c -0.36187,1.14596 -1.12318,2.08953 -1.49334,3.2 -0.75684,2.27054 -0.54781,7.99556 2.45334,8.32 0,1.58624 -0.0764,2.36727 -1.28,3.52 -0.51518,0.49341 -1.13549,1.19225 -1.92,0.8 -0.84529,-0.42265 -0.94583,-1.65304 -1.28,-2.4 -1.98383,0.52206 -1.58657,1.40898 -2.4,2.82667 -0.23015,0.40111 -0.78059,0.57761 -0.96,1.01333 -0.30749,0.74676 -0.33223,1.75779 -0.48,2.56 -1.75491,-0.32327 -2.13224,-1.06448 -2.88,-2.56 -2.45004,1.22501 -3.52,2.39347 -3.52,5.12 0,0.5918 -0.13243,1.37691 0.16,1.92 0.73458,1.36422 3.41201,3.11895 3.68,0.64 -2.31745,-0.9148 -2.70488,-2.34962 -1.92,-4.48 1.06689,1.06688 2.02749,1.26129 3.2,2.02667 1.94348,1.26866 2.61326,3.06671 5.12,1.81333 l -2.13333,-2.88 0.21333,-3.52 3.04,3.84 1.12,2.56 h 0.32 l 1.92,-8.96 c 1.59221,0.17213 1.21334,1.04728 1.76,2.24 0.36047,0.78647 1.0294,1.27064 0.74666,2.24 -0.42373,1.45277 -1.21142,1.54557 -0.90666,3.2 1.98809,0 4.41625,-0.7917 5.44,-2.56 h 0.32 c 1.02508,2.59685 -2.67488,2.5671 -1.6,5.12 0.75639,-0.19904 1.30184,-0.49819 1.92,-1.01333 1.29568,-1.07974 2.13779,-2.68015 1.54666,-4.42667 -0.35805,-1.05785 -2.24457,-2.60151 -3.41332,-1.76 -0.55371,0.39867 -0.57644,1.76542 -0.69334,2.4 h -0.96 l -0.32,-4.16 -0.16,-2.18667 -1.76,-1.76 -1.92,-1.17333 -0.16,-4.8 2.4,-4.16 h -0.32 l -1.6,1.28 -0.64,-3.84 h -0.64"
       id="path38"
       inkscape:label="roof_fire_center" />
  </g>
  <g
     id="g7"
     inkscape:label="top_fire">
    <g
       id="g12"
       inkscape:label="fire6">
      <path
         style="fill:#292929;stroke:none"
         d="m 186.42,8.5800007 c 2.58899,-1.22637 6.00436,-3.32514 8.26666,-0.53334 0.57514,0.70975 0.45129,1.6623 1.01334,2.4533403 h 0.32 c 1.0149,-0.9882003 2.71447,-2.3592403 4.16,-2.5600003 0.96293,-0.13375 1.45959,0.37726 2.24,0.8 1.93902,1.05031 3.13393,1.7640803 3.84,4.0000003 l 1.92,-0.96 0.64,2.24 c 1.391,-0.40266 2.14662,-2.29684 3.52,-2.50666 1.07733,-0.16459 1.93883,1.27451 1.44,2.18666 -0.39471,0.72176 -1.40162,0.94082 -2.08,1.28 0.29566,0.59133 0.84104,1.24498 0.90666,1.92 0.12402,1.27566 -2.12414,4.05334 -3.46666,4.05334 -0.86014,0 -2.18137,-2.00209 -3.04,-0.8 -0.89318,1.25047 1.13486,2.12117 1.12,3.14666 -0.0109,0.7523 -1.4375,1.45777 -1.86666,2.02666 -0.48566,0.64379 -0.37334,1.36107 -0.37334,2.13334 2.40635,-1.32983 2.81574,-0.94092 4.16,1.28 0.25387,-0.13361 0.98539,-0.70971 1.28,-0.69334 0.93627,0.052 2.6619,1.59726 2.50666,2.61334 -0.12166,0.79635 -1.23185,1.71894 -1.86666,2.13334 -1.53228,1.00023 -2.16629,-0.27664 -3.52,-0.74668 -0.85195,-0.29582 -1.74699,-0.022 -2.56,0.21334 0.57713,0.99684 1.98449,1.7935 2.34666,2.88 0.46897,1.40687 -1.39078,3.14246 -2.34666,3.84 v 0.32 c 0.8969,0.0236 2.04186,0.64762 2.88,0.48 0.8149,-0.16297 2.60775,-2.11035 3.04,-2.82666 0.43127,-0.71469 0.0389,-1.45615 0.8,-2.08 0.4926,-0.40377 1.06914,-0.26055 1.6,-0.53334 0.88397,-0.45426 2.8093,-2.15793 3.14666,-3.09334 1.25693,-3.48514 -2.95082,-6.59703 -6.02666,-5.70666 -0.35254,-0.95688 -1.05098,-1.96356 0,-2.77334 0.56691,-0.4368 1.29096,-0.2469 1.86666,-0.58666 0.80461,-0.47484 2.30856,-1.96328 2.77334,-2.77334 0.5494,-0.95754 -0.40172,-2.24395 0.21334,-3.09332 0.76764,-1.06008 1.9225,-1.50082 2.4,-2.93334 1.19363,-3.5809603 -1.33967,-8.4962503 -5.65334,-6.9333403 -1.97764,0.71652 -2.47826,3.2632 -4.48,4.0533403 -1.14066,-2.8137103 -4.14685,-5.7524003 -7.36,-5.4400003 -1.52814,0.14857 -3.12111,1.31207 -4.48,1.92 -0.40539,-1.10037 -1.22023,-2.4243 -2.29334,-3.04 -0.51891,-0.29774 -1.2935,-0.16 -1.86666,-0.16 -2.86518,0 -5.12,1.89217 -5.12,4.8"
         id="path2" />
    </g>
    <g
       id="g13"
       inkscape:label="fire5">
      <path
         style="fill:#292929;stroke:none"
         d="m 172.98,16.580041 3.2,-2.13334 1.92,0.69334 1.92,0.16 c -0.28707,-0.57414 -0.86998,-1.25957 -0.90666,-1.92 -0.0457,-0.82205 0.60541,-1.19207 1.12,-1.70666 0.49807,-0.49807 0.90596,-1.17334 1.70666,-1.17334 2.11637,0 3.39854,3.31623 1.6,4.48 v 0.32 h 4.48 c 0.0301,-1.14182 1.08059,-3.41772 2.56,-3.25334 0.91484,0.10164 1.83147,1.28625 2.24,1.97334 l -1.6,0.96 v 0.32 l 3.2,3.2 h 0.32 c 0.59426,-0.72844 1.30654,-2.07588 2.24,-2.4 1.10379,-0.38326 2.76377,1.69156 2.50666,2.72 -0.27891,1.11564 -1.72016,2.0935 -2.50666,2.88 v 0.32 l 2.56,3.2 -2.56,3.2 v 0.32 l 1.12,1.28 -1.44,4.16 c 0.74918,0.47316 1.61613,0.87754 2.13334,1.65334 1.11836,1.67754 -0.0323,3.09978 -1.81334,3.14666 1.24197,0.90324 3.89303,0.39049 4.42666,-1.28 0.31547,-0.98756 0.63147,-2.82066 0.32,-3.84 -0.2001,-0.65486 -0.77666,-1.00342 -1.06666,-1.6 -0.36709,-0.75516 -0.28574,-2.37693 -0.16,-3.2 0.26799,-1.75412 2.29463,-3.13543 2.56,-4.8 0.29139,-1.82777 -1.82086,-2.53535 -1.22666,-4.48 0.34631,-1.13336 1.71963,-1.7165 2.02666,-2.88 0.15311,-0.58022 -0.62846,-2.9049 -0.96,-3.46666 -0.97685,-1.65522 -4.17346,-2.43379 -5.92,-1.49334 -0.85918,0.46264 -1.33826,1.68103 -2.56,0.96 -1.19312,-0.70414 -1.00793,-3.0931303 -2.56,-3.6266603 -1.05928,-0.36412 -2.69652,-0.111 -3.52,0.58666 -0.54947,0.4655303 -1.15234,1.5291603 -1.92,1.6533403 -1.1331,0.1833 -0.78898,-1.31813 -1.12,-1.8666803 -0.31109,-0.51553 -1.19305,-1.38193 -1.76,-1.6 -1.52732,-0.58742 -4.14494,0.25859 -5.06666,1.49334 -0.52203,0.6993203 -0.59478,1.5794103 -1.33334,2.1333403 -2.04332,1.5325 -4.16,1.83189 -4.16,4.90666"
         id="path5" />
    </g>
    <g
       id="g11"
       inkscape:label="fire4">
      <path
         style="fill:#292929;stroke:none"
         d="m 169.14,27.460001 c 1.46557,-1.40184 1.70147,-4.62742 4.48,-5.01334 1.70059,-0.23621 2.5868,2.06426 4.48,1.17334 1.29936,-0.61147 0.90512,-2.30717 2.56,-2.56 2.81779,-0.43051 2.12031,2.61307 4.16,3.36 1.76652,0.64689 2.24887,-2.14402 3.52,-2.34666 1.03365,-0.16479 2.10326,1.23406 1.81334,2.18666 -0.18641,0.6125 -0.70094,0.91557 -1.17334,1.28 l 0.69334,1.6 -1.97334,2.88 c 1.28139,0.57324 3.84,1.32469 3.84,3.2 0,0.83252 -0.895,1.57502 -1.28,2.24 l 2.56,2.56 h 0.64 c 0.26137,-0.90289 0.0991,-2.04891 0.48,-2.88 0.76316,-1.6651 1.74494,-3.43602 1.06666,-5.44 -0.23434,-0.69236 -1.10613,-1.31631 -1.54666,-1.92 l -1.92,1.28 c -0.26092,-0.90135 -0.64726,-2.29506 -0.16,-3.2 0.67854,-1.26014 2.46516,-2.08598 2.02666,-3.84 -0.26031,-1.04125 -1.71902,-3.21106 -2.82666,-3.46666 -1.38992,-0.32074 -3.18252,1.37154 -3.52,2.50666 -2.35441,-0.49566 -2.9258,-3.4908 -5.44,-3.84 -1.99684,-0.27734 -2.95643,1.62717 -4.48,2.4 -1.26562,0.64197 -3.10959,-0.0808 -4.48,0.26666 -3.05402,0.77426 -5.16623,4.85353 -3.52,7.57334"
         id="path12" />
    </g>
    <g
       id="g8"
       inkscape:label="fire3">
      <path
         id="path14"
         style="fill:#292929;stroke:none"
         d="m 148.98,26.820001 c -1.92318,1.77135 -4.43903,4.16162 -2.72,7.04 0.68016,1.13887 2.49412,2.00342 2.34667,3.52 -0.10019,1.03047 -1.78356,3.07183 -2.66667,1.6 -0.34448,-0.57414 -0.0353,-1.30961 -0.21333,-1.92 -0.36721,-1.25899 -1.29267,-2.14109 -1.54667,-3.52 -0.76355,0.27094 -1.81852,1.1015 -2.13333,1.92 -0.27505,0.71512 0.0868,1.54324 -0.26667,2.24 -0.26702,0.52641 -0.86634,0.77787 -1.06667,1.33334 -1.22149,3.38689 1.47181,8.58666 5.06667,8.58666 l -0.16,-2.18667 -2.56,-2.29333 0.48,-3.52 h 0.64 l 2.72,4.8 0.26667,1.28 2.13333,1.6 c 0.88999,-1.47044 -0.22248,-2.75505 0.48,-4.16 0.70835,-1.4167 2.41131,-2.23068 3.30667,-3.52 0.90333,-1.3008 1.18758,-4.99506 0.0533,-6.08 l -1.01333,3.14666 -1.97334,-1.22666 1.01334,-1.6 -1.17334,-4.16 -1.01333,-2.88 m 10.56003,-1.6 -1.28,1.6 0.96,2.24 c -2.87031,0.2266 -3.22288,3.10562 -2.24,5.44 h 0.64 l 1.28,-4.16 1.44,2.24 0.32,1.54666 1.76,1.33334 h 0.32 c 2.1318,-1.68301 2.42399,2.35934 1.97334,3.84 -0.15545,0.51076 -0.70475,0.90129 -1.01334,1.28 1.86871,0.73764 1.49354,-0.78983 2.29334,-1.92 1.76174,-2.48941 1.77828,-7.22891 0.90666,-10.24 h -0.64 c -0.4085,0.91312 -0.93139,1.50381 -1.44,2.34666 -0.34846,0.57744 -0.0673,1.24478 -0.53334,1.81334 -0.52414,0.63945 -2.0109,0.91133 -2.24,-0.21334 -0.22773,-1.11797 2.55024,-3.00213 -0.26666,-3.30666 l -1.6,-3.84 h -0.64" />
    </g>
    <g
       id="g10"
       inkscape:label="fire2">
      <path
         id="path16"
         style="fill:#292929;stroke:none"
         d="m 182.25997,27.780001 c -1.82867,2.50596 -3.7949,4.09307 -1.01334,6.82666 0.59879,0.58846 0.85522,0.93605 1.65334,1.17334 l 1.22666,-3.2 -0.90666,-1.92 -0.32,-2.88 h -0.64 m -27.83997,13.76 c -1.74072,1.74072 -2.03665,3.38959 -1.6,5.76 1.77584,-0.65114 3.10792,-4.31764 1.6,-5.76 m 2.55993,-3.2 -1.28,2.56 c 2.13844,1.30682 -0.0838,3.62791 1.12,5.33333 1.60057,2.26746 4.02387,1.53559 4.85334,-0.85333 0.265,-0.76318 0.39543,-3.09429 -0.0533,-3.78667 -0.41217,-0.63591 -1.03988,-0.9131 -1.44,-1.65333 h -0.64 l -0.32,0.32 v 0.64 l 1.28,0.32 c -0.28367,1.3475 -0.97685,2.06139 -2.24,2.56 -0.22221,-0.60315 -0.6307,-1.25024 -0.64,-1.92 -0.0208,-1.5015 0.90158,-2.5225 -0.64,-3.52 m 29.44,-4.8 c -0.56709,1.13418 -1.55664,2.60787 -1.81334,3.84 -0.13267,0.63682 0.3065,1.33232 0.0533,1.92 -0.27988,0.64971 -1.07359,0.88308 -1.33334,1.6 -0.39623,1.09359 0.47199,2.13031 0.16,3.2 -0.53203,1.82412 -2.37644,2.33489 -3.78666,3.04 -1.0332,0.5166 -1.33098,1.08766 -2.56,1.12 v 0.64 c 1.48316,0 3.01777,0.57889 4.48,0.21333 4.46832,-1.11708 8.79068,-5.35191 6.4,-10.13333 l -1.28,1.28 h -0.32 l -0.96,-0.96 v -0.32 c 1.6665,-0.96483 2.46762,-3.99793 0.96,-5.44" />
    </g>
    <g
       id="g9"
       inkscape:label="fire1">
      <path
         style="fill:#292929;stroke:none"
         d="m 172.97997,37.380001 -0.96,-3.84 h -0.32 l -1.92,3.2 c 1.14807,0.83777 1.38303,1.81617 2.24,2.88 0.38516,0.47812 1.01631,0.89226 0.90666,1.6 -0.13559,0.8751 -3.21851,3.98838 -4.10666,3.68 -0.82764,-0.28737 -1.63185,-1.47186 -2.24,-2.08 -1.31797,0.92746 -2.31896,1.67309 -3.04,3.2 -0.36639,0.77588 -0.5116,1.55587 0.48,1.86667 0.34691,0.10873 0.96672,0.10662 1.28,-0.10667 0.40217,-0.27382 0.61883,-0.75313 1.01334,-1.01333 0.92682,-0.61131 3.49969,-0.7874 3.30666,0.85333 -0.042,0.35678 -0.38232,0.90882 -0.48,1.28 l 3.52,-1.6 v -0.32 l -1.28,-0.64 0.32,-1.28 1.6,0.96 c 0.83238,-1.37524 0.54133,-2.3281 0.37334,-3.84 -0.0445,-0.40063 0.13701,-0.95622 0.58666,-1.06666 0.85492,-0.20998 1.95623,2.30067 2.88,2.61333 1.78709,0.60486 2.84811,-1.27322 3.68,-2.45334 0.42359,-0.60091 1.13541,-1.13105 1.01334,-1.97333 -0.11293,-0.77924 -1.29965,-1.62688 -1.81334,-2.24 h -0.32 c -0.60805,0.96273 -0.079,4.35137 -2.56,3.89334 -1.00033,-0.18467 -0.79234,-2.22815 -0.58666,-2.93334 0.28012,-0.96039 1.12365,-1.50045 1.22666,-2.56 0.0916,-0.94266 -0.15826,-2.74949 -0.69334,-3.52 -0.48609,-0.69998 -1.31892,-1.14453 -1.70666,-1.92 -0.3976,-0.79522 -0.22478,-1.99834 -0.48,-2.88 -1.66109,0.48086 -2.59586,2.48826 -1.76,4.16 0.37994,0.75988 1.19268,1.21432 1.65334,1.92 1.11994,1.71564 -0.37949,3.32986 -1.81334,4.16"
         id="path15" />
    </g>
  </g>
</svg>
