<?xml version="1.0" encoding="UTF-8" standalone="no"?>
<!-- Created with Inkscape (http://www.inkscape.org/) -->

<svg
   version="1.1"
   id="svg1"
   width="318.72"
   height="202.56"
   viewBox="0 0 318.72 202.56"
   sodipodi:docname="hit-animation.svg"
   inkscape:version="1.4.3 (0d15f75, 2025-12-25)"
   xmlns:inkscape="http://www.inkscape.org/namespaces/inkscape"
   xmlns:sodipodi="http://sodipodi.sourceforge.net/DTD/sodipodi-0.dtd"
   xmlns="http://www.w3.org/2000/svg"
   xmlns:svg="http://www.w3.org/2000/svg">
  <defs
     id="defs1" />
  <sodipodi:namedview
     id="namedview1"
     pagecolor="#ffffff"
     bordercolor="#000000"
     borderopacity="0.25"
     inkscape:showpageshadow="2"
     inkscape:pageopacity="0.0"
     inkscape:pagecheckerboard="0"
     inkscape:deskcolor="#d1d1d1"
     inkscape:zoom="9.5627774"
     inkscape:cx="121.25138"
     inkscape:cy="92.180333"
     inkscape:window-width="3840"
     inkscape:window-height="2054"
     inkscape:window-x="-11"
     inkscape:window-y="-11"
     inkscape:window-maximized="1"
     inkscape:current-layer="svg1"
     showguides="true"
     showgrid="false" />
  <g
     id="g4"
     inkscape:label="hit">
    <g
       id="g5"
       inkscape:label="top_right">
      <path
         style="fill:#292929;stroke:none"
         d="m 219.7,62.979981 -0.8,3.2 -1.92,3.52 -0.10666,1.86667 3.14666,-0.16 7.04,-2.66667 v -0.64 l -3.84,-0.64 1.28,-3.52 -3.52,1.6 -1.28,-2.56"
         id="path32" />
    </g>
    <g
       id="g14"
       inkscape:label="top_left">
      <path
         style="fill:#292929;stroke:none"
         d="m 95.54004,64.259921 2.56,4.48 -2.56,0.96 v 0.32 l 6.4,2.98667 2.4,-0.21334 -0.74667,-2.45333 -1.6,-3.2 -0.69333,-2.88 h -0.32 c -0.15332,0.3427 -0.26756,0.96759 -0.48,1.28 -1.57214,2.31198 -3.26377,-0.73283 -4.96,-1.28"
         id="path36" />
    </g>
    <g
       id="g15"
       inkscape:label="bottom_left">
      <path
         style="fill:#292929;stroke:none"
         d="m 99.7,133.06 -0.32,1.28 0.96,1.28 c -1.70445,0 -4.5381,-0.67735 -5.12,1.28 0.91046,0.26355 4.29342,0.6663 3.94667,2.24 -0.12101,0.5492 -1.12061,0.99692 -1.38667,1.6 2.1198,0.89254 3.07652,-1.21826 4.8,-2.08 0.54862,-0.27432 1.32698,-0.30834 1.92,-0.48 v -0.64 l -2.88,-0.96 v -0.32 l 2.56,-1.28 -4.48,-1.92"
         id="path126" />
    </g>
    <g
       id="g16"
       inkscape:label="bottom_right">
      <path
         style="fill:#292929;stroke:none"
         d="m 214.26,134.98 2.56,1.28 v 0.32 l -2.88,0.96 v 0.64 c 0.60568,0.25502 1.33539,0.18346 1.92,0.48 1.6942,0.85937 2.65873,2.98158 4.8,2.08 l -1.92,-1.6 v -0.32 l 2.24,-1.44 2.24,-0.8 v -0.32 l -5.44,-0.96 1.28,-0.96 -0.32,-1.28 -4.48,1.92"
         id="path127" />
    </g>
  </g>
</svg>
