<?xml version="1.0" encoding="UTF-8" standalone="no"?>
<!-- Created with Inkscape (http://www.inkscape.org/) -->

<svg
   version="1.1"
   id="svg1"
   width="318.72"
   height="202.56"
   viewBox="0 0 318.72 202.56"
   sodipodi:docname="figures-group-path.svg"
   inkscape:version="1.4.2 (f4327f4, 2025-05-13)"
   xmlns:inkscape="http://www.inkscape.org/namespaces/inkscape"
   xmlns:sodipodi="http://sodipodi.sourceforge.net/DTD/sodipodi-0.dtd"
   xmlns="http://www.w3.org/2000/svg"
   xmlns:svg="http://www.w3.org/2000/svg">
  <defs
     id="defs1" />
  <sodipodi:namedview
     id="namedview1"
     pagecolor="#ffffff"
     bordercolor="#000000"
     borderopacity="0.25"
     inkscape:showpageshadow="2"
     inkscape:pageopacity="0.0"
     inkscape:pagecheckerboard="0"
     inkscape:deskcolor="#d1d1d1"
     inkscape:zoom="4.7813887"
     inkscape:cx="136.98949"
     inkscape:cy="150.06101"
     inkscape:window-width="3840"
     inkscape:window-height="2054"
     inkscape:window-x="-11"
     inkscape:window-y="-11"
     inkscape:window-maximized="1"
     inkscape:current-layer="svg1" />
  <g
     id="g194"
     inkscape:label="burn3"
     transform="translate(-3.8892533,1.6201806)">
    <path
       id="path4"
       style="fill:#292929;stroke:none"
       d="m 305.46,24.580001 c -0.16566,-0.33133 -0.78023,-1.10231 -0.69334,-1.49334 0.16262,-0.73178 1.46801,-0.68506 1.92,-1.12 0.43248,-0.41615 0.46692,-1.06553 0.8,-1.54666 0.84295,-1.21758 1.50336,-1.65621 0.85334,-3.2 l -1.6,1.6 h -0.32 l -0.64,-2.88 c -1.65639,0.17908 -0.90109,1.0642 -1.44,2.24 -0.26625,0.58092 -0.79871,0.98184 -1.01334,1.6 -0.27646,0.79621 -0.18668,1.73096 -0.42666,2.56 -0.71971,-0.41668 -1.36451,-1.18272 -2.24,-1.28 -1.17562,-0.13063 -2.81752,1.19318 -3.73334,-0.0533 -0.91385,-1.24385 2.26844,-1.24086 2.77334,-1.49332 1.49772,-0.74885 1.61295,-2.12408 2.61334,-3.2 0.94266,-1.01381 3.17049,-1.53986 2.02666,-3.57334 -0.50342,-0.89498 -1.7408,-0.74029 -2.24,-1.6 -0.27832,-0.47934 -0.0444,-1.06625 -0.32,-1.5466603 -1.56055,-2.71981 -5.44064,-4.31565 -8.48,-3.14668 -1.9281,0.74158 -2.53041,3.23166 -3.62666,4.6933403 -0.66449,0.88598 -1.93892,0.8109 -2.34668,1.92 -0.68861,1.87303 0.73834,2.16584 1.28,3.52 0.15955,0.39887 -0.17297,0.89949 0,1.28 0.31258,0.68766 1.48119,1.33633 2.13334,1.65334 1.0302,0.50078 2.43375,-0.0616 3.04,1.22666 0.22453,0.47711 0.10207,1.2149 -0.48,1.38666 -0.48433,0.14293 -0.82848,-0.41197 -1.28,-0.32 -0.90685,0.18473 -2.44539,1.70906 -2.02666,2.77334 0.40393,1.02666 2.44358,0.64 3.30666,0.64 2.19754,0 4.9059,0.42685 7.04,-0.10666 0.67326,-0.16832 1.28516,-0.87184 1.92,-0.96 0.72123,-0.10018 1.00488,0.6835 1.6,0.90666 0.63057,0.23646 1.10748,-0.1819 1.6,-0.48 M 295.22,8.2600407 v 0.64 l -1.28,0.32 c 0.53975,1.8154303 3.30026,1.8154703 3.84,0 l -1.28,-0.96004 c 2.3408,-0.92399 4.57629,3.0477903 2.45334,4.6400003 -1.48914,1.11685 -2.82473,-0.90658 -4.05334,-0.96 -0.64654,-0.0281 -0.96447,0.68762 -1.28,1.12 h -0.64 c -1.04088,-1.71971 -0.54312,-5.8985703 2.24,-4.8000003 m 4.8,8.9600003 h -0.32 l -0.64,-1.28 c -1.52262,0.45268 -0.71846,1.18451 -1.44,2.18666 -0.88707,1.23205 -2.36312,-0.0263 -2.72,-0.90666 h -0.64 l -0.64,1.28 h -0.64 l -1.6,-2.56 c -0.36084,1.21371 -0.87783,1.24338 -1.92,0.64 l 0.96,-2.56 c 0.82297,0.23822 1.77498,0.14225 2.56,0.42666 0.88502,0.32066 1.24918,1.32836 2.24,1.44 1.29768,0.14621 5.98332,-3.50498 5.38666,0.37334 -0.0681,0.44285 -0.3367,0.6082 -0.58666,0.96" />
  </g>
  <g
     id="g193"
     inkscape:label="burn2"
     transform="translate(-3.8892533,1.6201806)">
    <path
       id="path3"
       style="fill:#292929;stroke:none"
       d="m 267.7,16.260001 c -0.67328,1.59908 0.26906,2.8401 1.92,3.41334 0.98707,0.34273 2.45963,-0.3199 2.82666,1.06666 0.53094,2.00578 -1.4359,0.84506 -2.18666,1.12 -0.86689,0.31746 -1.83627,1.79021 -1.54666,2.72 0.32293,1.03674 2.30449,0.64 3.14666,0.64 2.19754,0 4.9059,0.42687 7.04,-0.10666 0.67328,-0.16832 1.28514,-0.87184 1.92,-0.96 0.71711,-0.0996 1.00988,0.67717 1.6,0.90666 0.47877,0.18619 1.12027,-0.0716 1.6,-0.16 -0.12892,-0.4899 -0.70428,-1.37496 -0.48,-1.86666 0.3317,-0.72719 1.42725,-0.56994 1.92,-1.12 0.36348,-0.40574 0.34887,-1.04279 0.64,-1.49334 0.82248,-1.27287 1.47356,-1.60027 0.8,-3.2 h -0.64 l -0.64,1.6 h -0.64 c -0.38033,-1.31391 0.0264,-2.70416 -1.6,-2.88 l -1.6,6.4 c -0.82252,-0.24453 -1.15162,-0.96658 -1.92,-1.22666 -1.12619,-0.38117 -3.86871,1.44584 -4.26666,-0.37334 -0.106,-0.48453 0.32113,-0.81834 0.74666,-0.90666 1.53486,-0.31856 2.3909,-0.33914 3.52,-1.65334 0.56225,-0.65441 0.59758,-1.59635 1.28,-2.13334 0.81299,-0.63975 1.72195,-0.50479 2.02666,-1.70666 0.53445,-2.10813 -1.31717,-1.89861 -2.29332,-2.93334 -0.51264,-0.5434 -0.19305,-1.22022 -0.53334,-1.8133203 -0.50504,-0.88024 -2.13641,-2.60678 -3.04,-3.09334 -0.61457,-0.33092 -1.56764,-0.16 -2.24,-0.16 -0.90582,0 -2.38129,-0.28084 -3.2,0.16 -1.98125,1.06682 -2.30004,3.44185 -3.62666,4.9066603 -0.53203,0.58744 -1.5023,0.42656 -1.97334,1.06668 -1.19094,1.61846 -0.31574,3.41703 1.44,3.78666 m 6.08,-7.9999603 v 0.64 l -1.28,0.64 c 1.16795,1.4707403 2.85291,1.1694903 4.16,0 l -1.28,-1.6 c 1.97852,0.15619 4.54203,3.3601203 2.18666,4.9600003 -1.41728,0.96269 -2.56176,-0.80231 -3.78666,-0.85334 -0.77127,-0.0322 -1.49195,0.7968 -2.24,1.01334 -0.85365,-1.70732 -0.53344,-5.8947503 2.24,-4.8000003 m 5.12,8.9599603 h -0.64 l -1.6,-1.28 c 0,0.38473 0.0781,0.90359 0,1.28 -0.50879,2.45137 -2.66017,0.68307 -3.84,0 l -0.64,1.28 h -0.64 l -0.64,-2.56 c -0.52531,0.30412 -1.27182,1.15187 -1.92,1.12 -1.25496,-0.0617 -0.42531,-2.40219 0.32,-2.66666 2.12094,-0.7526 2.80209,1.14375 4.48,1.49332 1.75024,0.36463 5.51834,-3.70008 5.44,0.37334 -0.009,0.47289 -0.13465,0.51978 -0.32,0.96" />
  </g>
  <g
     id="g192"
     inkscape:label="burn1"
     transform="translate(-3.8892533,1.6201806)">
    <path
       id="path1"
       style="fill:#292929;stroke:none"
       d="m 246.26,16.260001 c -0.53428,1.84568 0.39748,2.79918 2.24,3.41334 0.72238,0.24078 1.59256,-0.1141 2.18666,0.48 0.5441,0.5441 0.37334,1.48617 0.37334,2.18666 l -2.24,-0.64 -1.6,3.2 c 2.78721,0.80682 7.01285,0.64301 9.92,0.32 1.85955,-0.20662 2.41223,-1.95656 3.84,0 l 1.92,-0.64 c -0.11834,-0.22484 -0.71131,-1.00574 -0.64,-1.28 0.25692,-0.98809 1.23391,-0.7177 1.81334,-1.33334 0.38738,-0.41158 0.41563,-1.07166 0.69332,-1.54666 0.74195,-1.26912 1.33672,-1.67193 0.69334,-3.2 h -0.64 l -0.64,1.6 h -0.64 c -0.24449,-1.32717 -0.0475,-2.71215 -1.6,-2.88 0,1.60441 -0.68228,2.10578 -1.17334,3.52 -0.46488,1.33889 0.31313,2.37465 -1.38666,2.88 -0.64205,-2.15955 -2.29459,-0.87545 -3.84,-0.74666 -0.61719,0.0514 -1.56617,-0.40404 -1.38666,-1.17334 0.23731,-1.01705 2.27557,-0.51283 2.98666,-0.90666 1.45387,-0.80522 1.48617,-2.53727 2.61334,-3.46668 0.62162,-0.51256 1.4442,-0.28576 1.86666,-1.06666 1.27686,-2.36023 -1.27592,-2.44916 -2.08,-3.84 -0.29432,-0.50908 -0.17721,-1.08717 -0.53334,-1.6000003 -1.80129,-2.59387 -5.07516,-4.24967 -8.26666,-3.09334 -1.99875,0.72418 -2.59719,3.16754 -3.68,4.6933403 -0.51494,0.72559 -1.45933,0.68658 -2.02666,1.33334 -1.245,1.4193 -0.25211,3.31969 1.22666,3.78666 m 6.08,-8.3199603 -0.96,1.28 c 0.5244,1.7638103 2.36861,1.3859203 3.84,0.9600003 V 9.5400407 l -1.28,-0.64 v -0.64 c 2.219,-0.8759 4.01371,2.7667003 2.45334,4.4266603 -1.82324,1.93961 -3.77873,-2.17057 -5.33334,0.37334 h -0.96 c -0.67023,-2.12238 -0.59969,-4.8958203 2.24,-5.1200003 m 5.12,9.2799603 -2.24,-1.28 c 0,0.59703 0.2069,1.67709 -0.16,2.18666 -0.8651,1.20152 -2.43969,0.0362 -2.72,-0.90666 l -1.6,1.28 h -0.32 l -0.96,-2.56 h -0.64 l -0.64,1.28 c -1.19615,-0.35563 -1.80139,-2.37953 -0.32,-2.98666 2.07527,-0.85053 3.17248,1.61623 4.8,1.70666 1.74623,0.097 5.27287,-3.65416 5.12,0.32 -0.0185,0.47973 -0.13,0.50875 -0.32,0.96" />
  </g>
</svg>
