<?xml version="1.0" encoding="UTF-8" standalone="no"?>
<!-- Created with Inkscape (http://www.inkscape.org/) -->

<svg
   version="1.1"
   id="svg1"
   width="318.72"
   height="202.56"
   viewBox="0 0 318.72 202.56"
   sodipodi:docname="figures-group-path.svg"
   inkscape:version="1.4.2 (f4327f4, 2025-05-13)"
   xmlns:inkscape="http://www.inkscape.org/namespaces/inkscape"
   xmlns:sodipodi="http://sodipodi.sourceforge.net/DTD/sodipodi-0.dtd"
   xmlns="http://www.w3.org/2000/svg"
   xmlns:svg="http://www.w3.org/2000/svg">
  <defs
     id="defs1" />
  <sodipodi:namedview
     id="namedview1"
     pagecolor="#ffffff"
     bordercolor="#000000"
     borderopacity="0.25"
     inkscape:showpageshadow="2"
     inkscape:pageopacity="0.0"
     inkscape:pagecheckerboard="0"
     inkscape:deskcolor="#d1d1d1"
     inkscape:zoom="4.7813887"
     inkscape:cx="136.98949"
     inkscape:cy="166.79255"
     inkscape:window-width="3840"
     inkscape:window-height="2054"
     inkscape:window-x="-11"
     inkscape:window-y="-11"
     inkscape:window-maximized="1"
     inkscape:current-layer="svg1"
     showguides="true">
    <sodipodi:guide
       position="28.443619,54.485862"
       orientation="0,-1"
       id="guide213"
       inkscape:locked="false" />
    <sodipodi:guide
       position="10.666357,118.27486"
       orientation="1,0"
       id="guide214"
       inkscape:locked="false" />
    <sodipodi:guide
       position="102.27154,10.565567"
       orientation="0,-1"
       id="guide229"
       inkscape:locked="false" />
    <sodipodi:guide
       position="10.038924,95.478138"
       orientation="1,0"
       id="guide230"
       inkscape:locked="false" />
  </sodipodi:namedview>
  <g
     id="g221"
     inkscape:label="runner_right_fall"
     transform="translate(0.2931996,0.28502717)">
    <path
       id="path183"
       style="fill:#292929;stroke:none"
       d="m 176.5,188.1 c -0.48365,1.22531 -1.47894,2.3509 -2.56,3.14666 -1.38881,1.02232 -2.24,0.58935 -2.24,2.61334 l 4.42666,-1.33334 3.89334,-3.41332 5.12,0.0533 1.92,1.06668 4.16,-0.21334 v -0.64 c -2.61516,-1.90836 0.43391,-3.79559 -0.32,-6.4 -1.67226,0.44008 -2.51398,1.39429 -3.36,2.88 -0.35285,0.61965 -0.43572,1.3751 -1.12,1.76 -1.84598,1.03836 -4.62494,-0.63266 -4.48,-2.72 0.0967,-1.39233 1.32977,-2.69305 1.6,-4.16 0.80025,0.14742 1.74988,0.52978 2.56,0.21334 2.01305,-0.78635 0.62459,-2.62744 -0.64,-3.09334 0.90805,-0.90805 1.339,-2.40815 2.24,-3.14666 0.86246,-0.70694 1.92969,-0.10502 2.88,-0.42668 1.71164,-0.5793 1.92,-2.28014 1.92,-3.78664 l -6.02666,0.37334 -2.29334,4.53332 -0.90666,-0.74666 -1.65334,-3.52 -2.24,-1.92 c 3.17815,-0.94487 -0.54394,-5.30848 -2.50666,-4 -1.37301,0.91534 -1.33334,2.90224 -1.33334,4.32 0,0.56406 -0.14953,1.37308 0.37334,1.76 1.12188,0.83019 3.96877,1.21941 4.58666,2.72 0.44174,1.07275 -0.88053,1.49812 -1.28,2.24 -0.3058,0.56791 -0.2208,1.61455 -0.16,2.24 0.17238,1.77308 2.23039,3.72844 0,5.06666 -1.32279,0.79369 -1.88678,-2.11383 -2.56,-2.82666 -1.90154,-2.0134 -3.59832,-2.66803 -6.4,-2.24 -0.89859,0.13728 -1.41916,0.85412 -2.24,1.17334 -0.49066,0.1908 -1.0873,0.12728 -1.49334,0.53332 -1.08809,1.08808 -1.17521,3.44984 -2.13332,4.69334 -0.9142,1.1865 -2.88637,0.66545 -3.36,2.56 -0.29318,1.17269 1.20006,2.43076 2.18666,2.77334 0.61693,0.2142 1.30035,0.007 1.92,0.21332 2.00705,0.66902 3.511,1.7866 5.76,0.69334 0.84912,-0.41278 2.12412,-0.96842 2.88,-1.49334 1.1268,-0.7825 1.38945,-1.82123 2.88,-1.54666 m -5.44,-4.15996 -0.64,2.24 1.92,0.32 c -0.24801,2.294 -4.73279,1.59679 -3.68,-0.96 0.15524,-0.37699 0.71467,-0.75135 1.01334,-1.01334 0.51781,-0.45422 0.71861,-0.51444 1.38666,-0.58666 m 9.92,8.32 1.28,1.6 c -1.75957,0.64826 -2.20389,0.58416 -3.84,-0.32 l 0.96,6.08 h 0.96 c 0.27018,-0.93332 -0.20303,-2.47397 0.16,-3.2 0.55779,-1.11559 1.74553,0.0734 2.4,0.37334 0.75135,0.34435 1.48287,0.0992 2.24,0.32 1.24359,0.36271 1.79559,1.1897 3.2,1.22666 -0.22109,-2.0451 -2.83197,-2.33176 -4.16,-3.52 l 5.12,-0.64 c -0.42234,-1.30539 -1.42393,-0.77887 -2.56,-1.17334 -2.26822,-0.78758 -3.30156,-1.97588 -5.76,-0.74666 z" />
  </g>
  <g
     id="g222"
     inkscape:label="runner_left_fall"
     transform="translate(0.2931996,0.28502717)">
    <path
       id="path182"
       style="fill:#292929;stroke:none"
       d="m 139.06,169.22 -2.24,1.92 -1.65333,3.52 -0.90667,0.74666 -2.29333,-4.48 L 125.94,170.5 c 0,1.5065 0.20834,3.20734 1.92,3.78666 0.80166,0.27133 1.78963,-0.22 2.56,0.21334 0.99439,0.55933 1.68551,2.48551 2.56,3.36 -1.01772,0.37494 -2.27423,1.1858 -1.44,2.50666 0.8888,1.40726 2.67794,-0.0872 3.62667,1.01334 0.43627,0.50607 0.25147,1.02664 0.42666,1.6 0.28014,0.91681 1.16689,1.485 0.85334,2.56 -0.47709,1.63574 -2.81072,2.93551 -4.42667,2.08 -0.78634,-0.41629 -0.7628,-1.0649 -1.12,-1.76 -0.73801,-1.43614 -1.80275,-2.4702 -3.36,-2.88 -0.21038,0.72678 -0.47889,1.47519 -0.21333,2.24 0.66247,1.90789 2.02478,2.60463 -0.10667,4.16 v 0.64 l 4.16,0.21334 1.92,-1.12 h 5.12 l 3.52,3.14666 4.8,1.6 c 0,-0.45905 0.11479,-1.14213 -0.16,-1.54666 -0.37425,-0.55098 -1.2264,-0.53467 -1.76,-0.85334 -1.26577,-0.75594 -2.83701,-2.17627 -2.56,-3.68 1.07579,0.42465 1.62681,1.21861 2.56,1.86666 0.51746,0.35935 1.06396,0.26531 1.6,0.53334 1.48068,0.74033 2.65449,1.61748 4.48,1.44 0.96803,-0.0941 1.41375,-0.74131 2.24,-1.12 1.19913,-0.54961 5.65621,-0.61123 4.32,-3.36 -0.75408,-1.55125 -2.38788,-1.11676 -3.25333,-2.24 -0.91141,-1.18289 -1.11751,-3.97727 -2.4,-4.8 -1.93866,-1.24367 -5.27059,-2.39951 -7.62667,-1.49334 -1.86811,0.71851 -1.88438,2.74676 -2.93333,4.05334 -0.66782,0.83185 -1.25391,1.41054 -2.18667,0.64 -2.71905,-2.24617 0.42361,-4.06278 0,-6.72 -0.18005,-1.12942 -1.90145,-1.62131 -0.90667,-2.88 0.53733,-0.67988 2.36178,-1.68756 3.14667,-2.08 0.47113,-0.23557 1.09732,-0.0574 1.44,-0.53334 0.32715,-0.45438 0.16,-1.34205 0.16,-1.86666 0,-1.51014 -0.25867,-3.96466 -2.24,-4.16 -2.09488,-0.20654 -4.23617,3.37627 -1.6,4.16 m 6.72,17.60004 2.24,-0.96 -0.64,-1.92 c 0.71258,0.077 0.86093,0.14193 1.38667,0.64 0.39146,0.37086 0.94945,0.75211 1.12,1.28 0.80378,2.48789 -3.21217,2.34242 -4.10667,0.96 m -16.64,7.36 4.16,0.42666 1.92,1.06668 4.8,-0.21334 v -1.92 c -1.63669,0.81834 -2.1212,0.95324 -3.84,0.32 l 1.28,-1.6 c -2.45845,-1.22922 -3.49177,-0.0409 -5.76,0.74666 -1.13606,0.39447 -2.13768,-0.13205 -2.56,1.17334" />
  </g>
  <g
     id="g217"
     inkscape:label="runner_right_4"
     transform="translate(0.2931996,0.28502717)">
    <path
       id="path168"
       style="fill:#292929;stroke:none"
       d="m 214.26,164.74004 c -1.31961,0.20836 -1.98846,-0.75779 -3.2,-0.64 -3.15949,0.30717 -2.93271,3.18562 -0.90666,4.74666 0.62121,0.47865 1.17619,0.22529 1.86666,0.42668 0.81065,0.23642 1.39053,0.90762 2.24,1.12 0.84912,0.21226 1.71242,-0.0228 2.56,0.10666 0.73553,0.11236 1.86127,0.7967 2.02666,1.6 0.15504,0.75304 -0.81873,1.05482 -1.38666,0.90666 -0.64594,-0.1685 -3.41041,-2.71397 -3.52,-0.26666 -0.0882,1.97004 2.85264,1.67916 4.16,1.92 v 0.64 c -0.78596,0.28957 -2.77293,1.53193 -3.52,1.38666 -1.20248,-0.23381 -1.40807,-1.32797 -2.88,-0.96 -1.1142,0.27855 -1.59824,1.17246 -2.56,1.65334 -0.7158,0.35789 -2.0941,0.79502 -2.88,1.01334 -1.02074,0.28353 -2.05391,-0.77627 -1.86666,-1.81334 0.12061,-0.66797 0.71316,-1.25156 0.90666,-1.92 l -1.92,-0.32 1.86666,-1.70666 0.69334,-1.81338 -0.32,-0.32 c -0.86609,0.2507 -1.39189,0.96752 -2.24,1.22666 -2.09045,0.63875 -5.08473,-0.67281 -5.44,2.61334 -4.10353,0.10799 -3.36793,5.73474 0,6.61334 2.20836,0.57609 3.20502,-0.96057 5.12,-1.17334 1.31465,-0.14608 3.53313,-0.31617 4.8,0.0533 0.9566,0.279 1.49729,1.15287 2.56,1.22666 1.5307,0.10629 2.24016,-1.21262 3.84,-0.96 -0.19855,0.68595 -0.2834,1.6807 -0.96,2.08 -0.71066,0.41941 -1.76762,0.12783 -2.56,0.48 -0.60566,0.26918 -1.19795,1.0507 -1.92,0.8 -1.21627,-0.42233 -2.22387,-3.06051 -3.84,-2.24 -2.73766,1.38988 -0.52541,5.7873 1.6,6.50666 2.83818,0.96062 3.55961,-2.63492 5.76,-3.09332 0.50459,-0.10514 1.12131,0.20031 1.6,0.32 1.61406,0.40351 2.98287,0.76353 4.48,1.54666 0.77498,0.40537 1.05652,1.02328 1.92,1.28 -0.34269,1.15263 -1.50525,1.03697 -1.86666,1.97334 -0.97453,2.52488 3.70602,2.13349 5.06666,1.76 0.39943,-0.10965 0.72674,-0.53352 1.01334,-0.8 0.60565,-0.56317 1.42486,-1.62125 0.74666,-2.50668 -0.37738,-0.49268 -1.2466,-0.42477 -1.76,-0.69332 -0.98375,-0.51459 -1.61344,-1.55489 -2.56,-2.13334 -0.43935,-0.2685 -1.20242,-0.32115 -1.44,-0.85334 -0.48721,-1.09133 1.13178,-1.21014 1.76,-1.22666 v -0.64 c -1.13949,0 -3.4733,-0.8586 -3.25334,-2.45334 0.12979,-0.94096 2.62699,-3.15526 3.57334,-2.82666 1.88922,0.65597 1.15121,2.14617 1.76,3.30666 0.72617,1.38426 1.02121,1.05496 0.16,2.61334 l 2.88,1.28 h 0.32 c 0.7242,-0.7242 1.64803,-1.47803 1.81334,-2.56 0.15695,-1.02731 -0.53615,-1.78113 -1.06668,-2.56 -1.37183,-2.01397 -3.27685,-3.32375 -5.54666,-4.16 0.36789,-0.93201 0.89584,-1.77772 1.92,-2.13334 1.23721,-0.42959 3.02018,-0.57418 3.2,-2.34666 0.12369,-1.21928 -1.13728,-2.02365 -1.33334,-3.2 -0.22035,-1.32213 0.41967,-2.85455 -0.0533,-4.16 -0.3751,-1.03529 -2.15057,-2.80884 -3.09334,-3.36 -3.04984,-1.78299 -9.42451,0.82435 -8.32,4.64 M 215.22,165.38 c 0.59399,-0.43346 1.06027,-1.03166 1.65334,-1.44 1.11824,-0.76994 2.82666,-0.46633 2.82666,1.12 0,2.09711 -2.7406,3.2409 -4.05334,1.6 -0.3058,-0.38226 -0.33199,-0.83032 -0.42666,-1.28 m -15.68,11.52004 2.24,-0.96 c 0.11137,0.60453 0.54924,1.56615 0.16,2.13334 -1.30473,1.90117 -4.33236,2.4289 -5.22666,-0.21334 -0.53758,-1.58828 0.84691,-2.24274 1.22666,-3.52 1.75484,0.18472 1.30863,1.17597 1.6,2.56" />
  </g>
  <g
     id="g226"
     inkscape:label="runner_left_4"
     transform="translate(0.2931996,0.28502717)">
    <path
       id="path166"
       style="fill:#292929;stroke:none"
       d="m 96.5,175.3 c -2.61013,0.96162 -5.224453,2.79504 -6.4,5.44 -0.701679,1.57877 0.684209,4.02236 2.56,3.84 0.85423,-0.0831 1.64372,-0.76738 1.81333,-1.6 0.0918,-0.45074 -0.44721,-0.79362 -0.32,-1.28 0.14506,-0.55465 0.86951,-0.69569 1.01334,-1.28 0.25712,-1.04453 0.16758,-3.06824 1.97333,-3.09334 0.98998,-0.0138 3.09333,2.11062 3.09333,3.09334 0,1.5926 -1.86098,2.24 -3.09333,2.24 v 0.64 c 0.62824,0.0165 2.2472,0.13533 1.76,1.22666 -0.2434,0.54521 -0.9833,0.56814 -1.44,0.8 -1.08035,0.54849 -1.75732,1.73201 -2.88,2.29334 -0.57311,0.28656 -1.28053,0.16379 -1.54667,0.85334 -1.126279,2.91808 3.06468,3.14666 4.74667,3.14666 0.52463,0 1.41227,0.16717 1.86667,-0.16 0.58,-0.4176 0.37333,-1.46229 0.37333,-2.08 l -2.24,-1.28 c 0.8726,-0.34446 1.2273,-0.92635 1.97333,-1.44 1.19944,-0.82584 2.72114,-1.25801 4.10667,-1.54666 0.66233,-0.13799 1.55532,-0.62266 2.24,-0.48 2.20038,0.4584 2.92183,4.05394 5.76,3.09332 2.22815,-0.75414 4.17374,-5.01196 1.54667,-6.50666 -1.49876,-0.85274 -2.65949,1.84861 -3.78667,2.24 -0.72204,0.2507 -1.31435,-0.53082 -1.92,-0.8 -1.88726,-0.83879 -3.05247,-0.022 -3.52,-2.56 1.59987,-0.25262 2.30929,1.06629 3.84,0.96 1.06271,-0.0738 1.60337,-0.94766 2.56,-1.22666 1.21798,-0.35526 3.54263,-0.24545 4.8,-0.0533 1.85148,0.28287 2.95196,1.92613 5.12,1.17334 3.11973,-1.08324 3.94863,-6.50944 0,-6.61334 -0.37479,-3.4669 -3.62113,-1.88942 -5.76,-2.61334 -0.76836,-0.26006 -1.09752,-0.98215 -1.92,-1.22666 -0.70922,1.79668 0.71038,2.39695 2.24,2.88 v 0.64 l -1.92,0.64 c 0.17646,0.60959 0.59828,1.01904 0.8,1.6 0.35684,1.02769 -0.64358,2.38824 -1.76,2.18666 -2.03497,-0.36742 -3.49632,-2.23408 -5.44,-2.72 -1.47191,-0.36797 -1.67749,0.72619 -2.88,0.96 -0.74706,0.14527 -2.73405,-1.09709 -3.52,-1.38666 v -0.64 c 1.27614,-0.23508 4.65483,-0.0108 4.10667,-2.24 -0.45153,-1.83625 -2.8162,0.19994 -3.46667,0.48 -0.5618,0.24187 -1.54983,-0.007 -1.38667,-0.8 0.16538,-0.80328 1.29119,-1.48764 2.02667,-1.6 0.84762,-0.12949 1.71086,0.10562 2.56,-0.10666 0.84943,-0.21237 1.42941,-0.8836 2.24,-1.12 0.68548,-0.19994 1.25612,0.0638 1.86667,-0.42668 1.88259,-1.51225 2.24039,-4.4407 -0.90667,-4.74666 -1.21153,-0.11779 -1.88042,0.84836 -3.2,0.64 0.0843,-0.45744 0.37278,-1.14016 0.26667,-1.6 -0.12517,-0.54237 -0.76378,-0.89254 -1.12,-1.28 -1.77177,-1.92718 -4.91494,-3.14219 -7.46667,-1.76 -1.03156,0.55877 -2.80078,2.22801 -3.14667,3.36 -0.407861,1.3348 0.26092,2.88699 0,4.21334 -0.217128,1.10371 -1.555986,2.01888 -1.49333,3.14666 0.101358,1.82445 2.1563,1.92799 3.36,2.34666 0.97525,0.33922 1.56305,1.25287 1.92,2.13334 m 6.72,-9.92004 c -0.0947,0.44968 -0.12087,0.89774 -0.42667,1.28 -1.23138,1.53924 -3.8275,0.72424 -4.05333,-1.28 -0.20179,-1.79091 1.5017,-2.35228 2.82667,-1.44 0.59303,0.40831 1.05939,1.00658 1.65333,1.44 m 17.28,8.96004 c 0.25447,0.8791 1.13322,1.37269 1.28,2.24 0.27035,1.59752 -1.46734,3.7331 -3.2,3.14666 -0.83743,-0.28344 -1.77232,-1.36918 -2.56,-1.86666 l 0.64,-1.92 1.28,0.96 1.28,-0.32 c -0.41429,-1.43117 -0.34755,-2.11151 1.28,-2.24" />
  </g>
  <g
     id="g214"
     inkscape:label="runner_right_1"
     transform="translate(0.2931996,0.28502717)">
    <path
       id="path163"
       style="fill:#292929;stroke:none"
       d="m 300.97993,154.82 -0.64,3.84 -2.24,-0.96 -1.28,3.52 0.8,1.6 -0.16,2.56 c -1.02375,-0.60871 -1.65189,-1.78764 -2.66666,-2.4 -0.77439,-0.46731 -1.93949,-0.18078 -2.77334,-0.64 -0.95471,-0.52578 -1.48324,-1.50126 -2.56,-1.92 -2.84623,-1.10687 -7.07465,-0.0907 -8.48,2.72 -0.51213,1.02425 -0.65154,3.36715 -0.37334,4.48 0.19527,0.78113 0.97535,1.45679 0.96,2.24 -0.007,0.37691 -0.83092,0.78797 -1.06666,0.96 0.41981,2.27894 2.84949,4.6622 4.48,1.92 h 0.32 l 2.93334,3.52 -2.61334,3.52 -1.6,-0.96 h -0.32 c -0.33137,0.31392 -0.77974,0.92996 -1.28,1.01334 -0.91703,0.15283 -2.09648,-0.37545 -2.72,0.64 -1.15307,1.87787 2.4966,3.67572 4,2.98666 0.65201,-0.29883 1.65848,-0.9533 2.13334,-1.49334 0.57469,-0.65358 0.93793,-1.98129 2.02666,-2.02666 1.24701,-0.052 2.78416,2.42871 3.84,3.04 v 0.32 c -1.8225,1.05513 -3.13469,2.70832 -3.52,4.8 -1.50476,-0.43559 -3.86541,-2.35428 -5.44,-1.44 -0.64459,0.37428 -1.0348,1.39094 -0.58666,2.02666 0.65596,0.93054 1.91629,1.25701 2.82666,1.81334 1.09231,0.66752 1.83332,1.90916 3.2,2.08 2.21043,0.27631 1.25152,-1.93158 2.02666,-3.2 0.91869,-1.50332 2.55004,-3.13465 4.05334,-4.05334 2.57424,-1.57315 2.90385,2.35183 5.12,2.13334 1.27026,-0.12524 2.75361,-2.0311 4.16,-1.44 1.23672,0.51978 3.28643,5.01543 4.8,2.08 1.19875,-2.32485 -0.66508,-2.75125 -1.86666,-4.16 -0.83461,-0.97852 -1.68629,-2.58272 -3.25334,-2.56 -1.42541,0.0207 -1.43974,3.20799 -3.2,2.4 -0.77631,-0.35635 -0.6056,-1.40297 -0.74666,-2.08 -0.2133,-1.02383 -0.60601,-1.8818 -1.49334,-2.50666 -0.95197,-0.67041 -3.93109,0.23926 -3.73334,-1.65334 0.0979,-0.93729 1.07789,-1.01676 1.81334,-0.85334 1.51168,0.33594 2.8599,1.95418 4.48,1.70668 2.14776,-0.32815 2.97151,-3.12178 3.84,-4.69334 -0.54724,-0.33123 -1.4248,-0.54496 -1.86666,-1.01334 -2.27031,-2.40653 2.6343,-5.34119 3.36,-7.30666 0.37527,-1.01637 0.39682,-3.81783 -0.0533,-4.8 -0.52666,-1.14909 -1.57271,-1.87131 -2.24,-2.88 -0.78635,-1.18868 -1.09057,-2.12192 -2.4,-2.88 m 0.32005,7.99996 c -2.7824,0 -1.55322,-1.34412 -0.64,-2.88 2.57074,0.2706 2.86967,2.07185 2.66666,4.16 -0.10549,1.08504 0.42037,1.61577 -0.42666,2.56 -1.73492,1.93402 -2.93049,-0.0114 -2.45334,-1.92 0.17108,-0.6843 0.55707,-1.29455 0.85334,-1.92 m -15.68,4.48 v -0.64 l 1.6,-1.6 -1.6,-0.32 c 0.49572,-1.71247 2.36967,-2.90057 4.16,-2.08 1.11262,0.50995 2.54324,2.03284 1.76,3.36 -0.5192,0.87976 -1.61826,0.46404 -2.34666,1.01334 -1.33344,1.00553 -1.9948,1.05594 -3.57334,0.26666 M 287.54,163.78 l -0.32,1.28 1.28,-0.32 v -0.64 l -0.32,-0.32 h -0.64 m 9.92,2.24004 c 1.80379,1.80379 3.47938,6.55804 0.32,8.16 -0.74,0.37521 -4.47885,0.53847 -4.96,-0.21334 -0.37258,-0.58215 0.23754,-1.35479 0.48,-1.86666 -1.70416,-0.26908 -2.76584,1.55586 -4.48,0.85334 -1.55627,-0.63783 -0.21357,-2.75889 0.64,-3.36 1.23309,-0.86838 2.95934,-0.30207 4.16,0.26666 l 3.84,-3.84" />
  </g>
  <g
     id="g223"
     inkscape:label="runner_left_1"
     transform="translate(0.2931996,0.28502717)">
    <path
       id="path162"
       style="fill:#292929;stroke:none"
       d="m 17.139929,154.82 c -0.96639,0.96638 -1.41275,1.76791 -2.08,2.88 -1.28005,2.13341 -2.99492,3.25234 -2.72,6.08 0.27749,2.85422 2.84852,3.77705 4,6.08 0.34659,0.6932 0.32975,2.25099 -0.21334,2.82666 -0.44189,0.46842 -1.31942,0.68211 -1.86666,1.01334 0.90622,1.63984 1.5987,4.35092 3.84,4.69334 1.59074,0.24303 2.95288,-1.43094 4.48,-1.70668 0.63768,-0.11514 1.54534,0.0813 1.70666,0.85334 0.32813,1.57031 -3.15787,1.2124 -3.94666,1.92 -0.75939,0.68121 -1.16826,1.55433 -1.28,2.56 -0.0695,0.6259 0.0874,1.42609 -0.64,1.76 -1.76024,0.80797 -1.7746,-2.37934 -3.2,-2.4 -1.55548,-0.0225 -2.51103,1.56154 -3.30667,2.56 -1.14426,1.43594 -3.0143596,1.83074 -1.81333,4.16 1.51357,2.93543 3.56325,-1.56022 4.8,-2.08 1.46998,-0.61781 2.83945,1.44 4.16,1.44 1.55894,0 2.18561,-2.13922 3.52,-2.50666 1.16211,-0.32 2.15632,0.83304 2.88,1.54666 1.60953,1.58719 3.2,2.73865 3.2,5.12 1.0242,0 2.58345,0.29527 3.52,-0.16 0.583,-0.2834 1.01341,-0.81856 1.6,-1.12 0.80148,-0.41188 1.90903,-0.82141 2.4,-1.65334 1.02674,-1.73975 -1.44486,-2.55082 -2.72,-2.08 -1.12187,0.41424 -1.97838,1.1397 -3.2,1.49334 -0.65409,-2.07127 -1.58814,-3.68156 -3.52,-4.8 v -0.32 c 1.05585,-0.61129 2.59298,-3.09196 3.84,-3.04 1.08872,0.0454 1.45196,1.37308 2.02666,2.02666 0.47486,0.54004 1.48133,1.19451 2.13334,1.49334 1.5034,0.68906 5.15307,-1.10881 4,-2.98666 -0.62352,-1.01545 -1.80296,-0.48717 -2.72,-0.64 -0.50026,-0.0834 -0.94862,-0.6994 -1.28,-1.01334 h -0.32 l -1.6,0.96 -2.88,-2.88 2.88,-4.16 c 0.62509,0.36189 1.20952,1.01945 1.92,1.22666 1.85194,0.54015 2.9363,-1.71522 3.2,-3.14666 -1.95995,-1.43024 -0.16098,-2.22834 0,-4.16 0.0858,-1.02926 -0.32925,-2.92394 -0.8,-3.84 -1.35146,-2.62987 -5.50459,-3.43266 -8.16,-2.4 -1.08806,0.42313 -1.62281,1.37211 -2.56,1.92 -0.82681,0.48336 -1.99488,0.17024 -2.77334,0.64 -1.0148,0.61238 -1.64291,1.79128 -2.66666,2.4 l 0.32,-4.48 -1.28,-3.2 h -0.64 l -1.28,0.96 -0.96,-3.84 m 0.64009,5.11996 c 0.91323,1.53588 2.14236,2.88 -0.64,2.88 0.3046,0.64304 0.57232,1.22261 0.74667,1.92 0.46422,1.85689 -0.5356,3.9389 -2.34667,1.92 -0.847,-0.9442 -0.32118,-1.47496 -0.42667,-2.56 -0.20301,-2.08815 0.096,-3.8894 2.66667,-4.16 m 15.04,4.8 -1.6,0.32 1.6,2.24 c -0.79043,0.39521 -1.93832,0.96058 -2.82667,0.48 -0.50904,-0.27539 -0.7599,-0.79727 -1.33333,-1.01334 -1.16425,-0.43869 -2.7226,-0.92862 -1.76,-2.66666 1.40876,-2.5436 5.1689,-1.95473 5.92,0.64 m -2.56002,-0.95996 -0.32,0.32 v 0.64 l 1.28,0.32 -0.32,-1.28 h -0.64 m -8.96,2.24 c 0.68574,1.08576 2.47629,3.31166 3.84,3.52 1.33133,0.2034 2.4605,-0.80653 3.84,0.10666 1.22389,0.81019 2.0861,3.11953 0,3.41334 -1.55324,0.21877 -2.22284,-1.21535 -3.84,-0.96 l 0.64,1.92 c -1.20736,0.50836 -4.29463,0.77664 -5.44,-0.0533 -2.61461,-1.89465 -1.42259,-6.56727 0.96,-7.94666" />
  </g>
  <g
     id="g216"
     inkscape:label="runner_right_3"
     transform="translate(0.2931996,0.28502717)">
    <path
       id="path160"
       style="fill:#292929;stroke:none"
       d="m 249.13997,153.54 c -0.62142,1.0267 -0.37838,1.80013 -0.69334,2.88 -0.44926,1.54033 -2.67391,3.98919 0.0533,4.8 -0.41742,1.98279 -1.62463,3.21557 -1.28,5.44 0.13199,0.85197 0.73582,0.98375 1.12,1.65334 0.45096,0.78595 0.40317,3.62031 0,4.42666 -1.10943,2.21888 -2.93574,2.50293 -4.96,3.09334 -0.65916,0.19224 -2.56,0.87101 -2.56,-0.53334 0,-0.84346 1.37703,-1.05485 1.92,-1.38666 1.58197,-0.96676 3.53147,-1.37994 3.2,-3.73334 -0.14502,-1.02961 -1.06992,-1.09051 -1.44,-1.92 -0.27892,-0.62518 0.21719,-1.55373 0.16,-2.24 -0.0972,-1.16654 -0.88982,-2.5965 -1.70666,-3.41334 -3.04027,-3.04027 -9.2306,-1.35215 -10.77334,2.45334 l -1.92,-0.96 c -0.36189,0.62509 -1.01943,1.20953 -1.22666,1.92 -0.64207,2.20137 2.6185,4.3042 4.42666,4.48 0.82721,0.0804 1.75701,-0.17215 2.56,0.10666 1.02414,0.3556 1.55211,1.20133 1.92,2.13334 l -3.2,0.26666 -2.88,-0.90666 c 0.35277,1.21861 1.7019,2.77095 2.88,3.36 0.76873,0.38437 2.67881,-0.23623 2.93334,1.01334 0.27846,1.36695 -2.55434,2.50234 -3.57334,2.34666 -1.67312,-0.25563 -1.04965,-1.63086 -2.02666,-2.4 -0.5134,-0.40416 -1.81689,-0.43639 -2.45334,-0.58666 -0.59746,-0.14108 -1.64109,-0.51207 -2.08,0.16 -0.42281,0.64742 1.55596,3.2549 2.08,3.78666 2.16063,2.1924 4.48774,0.55347 7.04,1.33334 1.04109,0.3181 2.08828,1.45744 2.88,2.18666 -1.00855,0.31849 -2.06051,0.57433 -2.88,1.28 -0.88846,0.76506 -1.96564,2.60894 -3.14666,2.88 -0.88469,0.20304 -2.00586,-1.95309 -3.09334,-0.53334 -0.23568,0.30769 -0.16,0.81959 -0.16,1.17334 0,2.53863 1.38234,2.64511 3.14666,3.94666 0.66949,0.49388 1.00752,1.21523 1.97334,1.12 2.70486,-0.26666 1.78815,-3.77811 2.34666,-5.38666 0.28754,-0.82813 1.10442,-1.69436 1.81334,-2.18666 1.72373,-1.19705 4.15992,1.08441 5.76,1.70666 0.97854,0.38054 2.17207,0.47539 3.2,0.8 v 0.64 c -0.9432,0.38238 -2.23652,2.25086 -0.64,2.82666 2.70051,0.97396 4.76654,-1.69815 4.8,-4.10666 0.007,-0.51969 0.16356,-1.41729 -0.16,-1.86666 -0.37482,-0.52061 -1.2056,-0.38104 -1.76,-0.37334 -1.51307,0.021 -3.1209,0.69812 -4.48,-0.42666 -1.0701,-0.88561 0.0523,-2.39619 0.32,-3.41334 -2.21305,0 -3.76285,-0.80074 -5.12,-2.56 0.9741,-0.17944 1.91094,-0.71875 2.88,-0.85334 1.08342,-0.15047 2.07643,0.62697 3.2,0.53334 2.7791,-0.2316 4.48,-2.53078 4.48,-5.12 -1.69808,-0.0447 -3.02982,-1.80502 -2.08,-3.52 0.95609,-1.72627 3.07219,-2.13571 4.32,-3.52 0.84373,-0.936 1.31006,-2.28131 0.8,-3.52 -0.17941,-0.43571 -0.72984,-0.61222 -0.96,-1.01334 -0.27469,-0.47873 -0.0729,-1.05242 -0.32,-1.54666 -0.37111,-0.74222 -1.18156,-1.34156 -1.76,-1.92 h -0.32 c -1.27055,1.78818 -2.5e-4,2.03382 0.8,3.52 0.36318,0.67449 0.36891,2.46366 0.21334,3.2 -0.36096,1.70849 -1.22295,0.58927 -2.29334,0.69333 -0.78713,0.0765 -1.53062,0.87749 -1.86666,-0.37333 -0.29834,-1.11051 0.87949,-1.37186 1.17332,-2.24 0.21295,-0.62918 0.16887,-1.95884 -0.10666,-2.56 -0.19697,-0.42975 -0.96109,-0.96434 -0.85334,-1.49334 0.1499,-0.73592 1.42613,-0.65706 1.81334,-1.17332 0.79803,-1.06404 -0.73951,-3.70331 -1.44,-4.37334 M 236.98,164.84667 c 2.06463,0.30362 0.71367,4.24716 -1.28,4.05333 -3.2408,-0.31508 -0.83793,-4.3648 1.28,-4.05333" />
  </g>
  <g
     id="g225"
     inkscape:label="runner_left_3"
     transform="translate(0.2931996,0.28502717)">
    <path
       id="path158"
       style="fill:#292929;stroke:none"
       d="m 68.979999,153.54 -1.12,4.37334 1.81334,1.28 -1.01334,2.02666 0.16,2.18666 1.06667,1.33334 -0.26667,1.6 -1.92,-0.58667 -1.28,0.37334 -0.69333,-2.34667 1.01333,-5.44 c -1.52082,0.88047 -1.68974,1.77948 -2.4,3.2 -0.67099,1.34197 -1.93944,2.80215 -0.69333,4.37333 1.32795,1.67438 4.13067,2.12491 4.90667,4.26667 0.3516,0.97045 0.0889,2.49525 -0.85334,3.04 -0.65374,0.37795 -1.58401,0.033 -1.6,1.12 -0.0337,2.29529 3.42518,4.32789 5.44,4.16 0.87531,-0.0729 1.6723,-0.65662 2.56,-0.53334 0.846935,0.11763 1.746202,0.59635 2.560001,0.85334 -1.3433,2.32025 -3.007181,1.99039 -5.120001,2.88 0.52623,0.67658 1.63247,1.86455 0.90667,2.82666 -1.07263,1.42185 -3.32582,0.71306 -4.74667,0.69334 -0.5544,-0.008 -1.38516,-0.14729 -1.76,0.37334 -0.32356,0.44937 -0.16722,1.34697 -0.16,1.86666 0.0335,2.40851 2.0995,5.08062 4.8,4.10666 1.5965,-0.57578 0.30321,-2.44428 -0.64,-2.82666 v -0.64 c 2.02665,-0.64 3.83623,-1.14483 5.760001,-2.08 0.892285,-0.43375 1.83377,-1.17115 2.88,-0.64 2.579297,1.30949 1.592051,3.52242 2.4,5.6 0.336162,0.86441 1.035157,2.19586 2.08,2.24 1.121641,0.0474 1.428428,-0.95307 2.24,-1.44 1.32586,-0.79551 4.356387,-2.71694 2.72,-4.85334 -1.087138,-1.41932 -2.244912,0.75099 -3.14667,0.53334 -1.132627,-0.2734 -2.226601,-2.13365 -3.09333,-2.88 -0.819492,-0.70569 -1.871445,-0.96151 -2.88,-1.28 v -0.64 l 2.56,-1.54666 6.4,-0.48 3.2,-3.73334 c -0.206015,-1.90569 -3.468447,-1.42418 -4.69333,-0.48 -0.847392,0.6532 -0.463144,1.95017 -1.70667,2.34666 -1.222959,0.38994 -3.84,-0.69055 -3.84,-2.18666 0,-1.34322 2.170118,-0.76506 2.88,-1.12 1.178077,-0.58905 2.527246,-2.14139 2.88,-3.36 L 83.7,173.00666 80.5,172.74 c 1.069922,-2.71045 2.864756,-1.78285 5.12,-2.34666 1.19959,-0.2999 2.245567,-1.18637 2.98667,-2.13334 0.388301,-0.49617 0.789873,-0.94725 0.85333,-1.6 0.259776,-2.67197 -2.400791,-1.43622 -3.46667,-2.24 -1.25748,-0.94826 -2.081757,-2.35637 -3.57333,-3.04 -3.016162,-1.3824 -6.700957,0.41373 -8.160001,3.04 -0.73229,1.31812 0.0841,2.65062 -0.37333,3.84 -0.22376,0.58176 -0.9289,0.74236 -1.22667,1.28 -0.39583,0.71469 -0.24408,2.20726 0.26667,2.82666 0.65871,0.79888 2.471085,1.40863 3.413331,1.86668 0.425684,0.20691 1.214698,0.38838 1.33333,0.96 0.262168,1.26314 -1.755273,0.91107 -2.29333,0.74666 -2.135181,-0.65242 -4.104681,-0.84936 -5.280001,-3.2 -0.40317,-0.80635 -0.45096,-3.64071 0,-4.42666 0.38418,-0.66957 0.988,-0.80139 1.12,-1.65334 0.34463,-2.22444 -0.86257,-3.45719 -1.28,-5.44 2.66979,-0.79373 0.50781,-3.24178 0.0533,-4.8 -0.33909,-1.1626 0.0235,-2.06531 -1.01333,-2.88 M 80.82,164.74 c 1.504004,0.11874 4.996358,2.05195 2.88,3.78666 -2.515263,2.0617 -3.349189,-2.16584 -2.88,-3.78666" />
  </g>
  <g
     id="g215"
     inkscape:label="runner_right_2"
     transform="translate(0.2931996,0.28502717)">
    <path
       id="path150"
       style="fill:#292929;stroke:none"
       d="m 259.7,149.7 -0.96,2.24 -1.92,-0.96 -1.6,8.32 1.22666,2.56 0.0533,4.48 -2.18666,3.2 1.06666,1.6 0.53334,1.6 5.06666,3.04 2.24,1.76 v 0.32 c -1.60025,0.75803 -4.71517,3.27041 -6.34666,1.28 -0.86543,-1.05584 0.12361,-2.86242 -1.65334,-3.30666 -2.11807,-0.52953 -2.97924,2.75207 -2.45334,4.26666 0.49076,1.4134 1.89131,2.37662 2.77334,3.52 h 0.64 c 1.58412,-2.22951 1.91664,-1.20182 3.84,-0.16 1.21051,0.65568 2.69815,1.00453 3.84,1.81334 0.92904,0.65806 1.5285,1.83092 2.56,2.34666 0.96686,0.48342 2.44594,0.16908 3.52,0.48 v 0.64 c -1.52512,0.6183 -1.74006,2.88189 0.32,2.56 1.80775,-0.28246 2.26051,-2.3641 2.24,-3.84 -0.008,-0.54711 0.0752,-1.37565 -0.42666,-1.76 -0.35978,-0.27557 -1.06568,-0.18352 -1.49334,-0.26666 -1.32008,-0.25668 -2.54621,-0.44479 -3.84,-0.85334 0.25135,-0.59694 0.51899,-1.20309 0.16,-1.86666 -0.38865,-0.71844 -1.4523,-1.2803 -1.17334,-2.29334 0.14117,-0.51268 0.62139,-0.77633 1.01334,-1.06666 0.28918,-0.21422 0.6152,-0.56565 0.96,-0.69334 3.20674,-1.1877 3.32666,3.03763 4.90666,4.58666 0.60193,0.59013 1.68178,0.37334 2.45334,0.37334 l -0.0533,-1.81334 2.29334,-2.98666 -3.52,-0.0533 -3.84,-2.18666 v -0.32 c 1.11693,-0.52908 2.48082,-0.60041 3.52,-1.12 0.89004,-0.44502 1.36484,-1.44596 2.24,-1.92 1.15379,-0.62496 2.35729,-0.71457 3.04,-2.08 0.63361,-1.26721 -0.62527,-2.05641 -0.8,-3.2 -0.14232,-0.93158 0.21012,-1.9677 -0.10666,-2.88 -1.16238,-3.34771 -5.30369,-6.22074 -8.85334,-5.33334 -1.67652,0.41914 -3.03717,2.18208 -4.48,3.09334 0.11367,0.6171 0.43637,1.3457 -0.0533,1.86667 -0.53014,0.56396 -1.23205,0.21187 -1.86666,0.42666 -1.03256,0.34948 -2.43338,2.00567 -1.76,3.14667 0.34752,0.58887 0.88643,0.53138 1.44,0.74666 0.90633,0.35248 1.50932,0.98467 2.56,0.85334 2.13885,-0.26737 5.24803,-1.85598 6.29334,1.28 0.52631,1.57892 -1.42332,2.58043 -2.77334,2.18666 -0.87754,-0.25594 -1.3668,-1.14893 -2.24,-1.44 -2.98855,-0.99617 -0.42305,2.68262 0,3.41334 -2.20226,0.6375 -4.20662,-0.41324 -5.28,-2.56 -0.38484,-0.76969 -0.11555,-1.73996 -0.48,-2.56 -0.91971,-2.06934 -2.35172,-4.28218 -1.49334,-6.72 0.76674,-2.17758 4.40908,-3.18653 4.37334,-5.76 -0.0141,-1.01578 -0.87117,-1.65348 -1.17334,-2.56 -0.27902,-0.83708 -0.0527,-1.71853 -0.42666,-2.56 -0.46189,-1.03929 -1.06742,-1.72602 -1.28,-2.88 h -0.64 M 259.7,157.38 v 0.32 0.32 l 0.96,1.28 c -0.58545,0.35435 -1.4968,0.99439 -2.24,0.74666 -0.90072,-0.30024 -2.40531,-2.01986 -1.54666,-2.93332 0.46588,-0.49563 1.25449,-0.37334 1.86666,-0.37334 -1.1306,-1.84468 -0.35873,-1.84031 0.64,-3.52 1.81488,0.19621 1.876,3.58947 0.32,4.16 m 7.68,6.08 c 0.67207,0.0707 1.00266,0.11488 1.49334,0.64 0.25024,0.2678 0.82608,0.91736 0.90666,1.28 0.63871,2.87412 -5.32648,3.16742 -4.26666,0.37333 0.36348,-0.95827 1.53395,-1.144 1.86666,-2.29333" />
  </g>
  <g
     id="g224"
     inkscape:label="runner_left_2"
     transform="translate(0.2931996,0.28502717)">
    <path
       id="path149"
       style="fill:#292929;stroke:none"
       d="m 58.099999,149.7 c -0.21257,1.15397 -0.81809,1.84072 -1.28,2.88 -0.37399,0.84148 -0.14764,1.72291 -0.42666,2.56 -0.34596,1.03786 -1.25593,1.69072 -1.17334,2.88 0.16528,2.38002 3.62361,3.31078 4.37334,5.44 0.94499,2.68378 -0.94285,4.74851 -1.70667,7.04 -0.24101,0.72301 0.08,1.54672 -0.26667,2.24 -1.07339,2.14678 -3.07771,3.1975 -5.28,2.56 0.32494,-0.56125 0.79303,-1.0258 1.12,-1.6 0.58426,-1.02602 0.27142,-2.28367 -1.12,-1.81334 -0.77466,0.26187 -1.2088,0.98762 -1.92,1.33334 -1.34324,0.65297 -3.63963,-0.38983 -3.14666,-2.08 0.928,-3.18176 4.29131,-1.47983 6.34666,-1.28 0.92286,0.0897 3.10345,-0.64985 3.73334,-1.33334 1.07965,-1.17153 -0.29019,-3.00612 -1.49334,-3.41333 -0.6346,-0.21479 -1.33653,0.13731 -1.86666,-0.42666 -0.4897,-0.52096 -0.16702,-1.24957 -0.0533,-1.86667 -2.63716,-1.38798 -3.71853,-3.52292 -7.04,-3.2 -2.51048,0.24408 -5.5101,3.09025 -6.29334,5.44 -0.3065,0.9195 0.0363,1.94428 -0.10666,2.88 -0.17472,1.14361 -1.43363,1.93275 -0.8,3.2 0.73003,1.46008 2.16758,1.55172 3.36,2.34666 0.69982,0.46656 1.16185,1.27426 1.92,1.65334 1.03916,0.51959 2.40307,0.59094 3.52,1.12 v 0.32 l -2.24,1.01334 -1.6,1.17332 -3.52,0.0533 1.92,4.48 c 2.82059,1.18761 3.2323,-1.19196 4.32,-3.2 0.63379,-1.1701 2.0422,-2.04399 3.36,-1.44 0.34458,0.15793 0.66823,0.45877 0.96,0.69334 2.00668,1.6132 0.19499,1.90515 -0.42667,3.62666 -0.35967,0.99601 0.18788,1.65402 -1.17333,2.13334 -1.02905,0.36234 -2.84209,-0.096 -3.73334,0.58666 -1.63168,1.2498 -0.005,4.98685 1.54667,5.54666 2.02912,0.73185 2.3448,-1.79387 0.58667,-2.50662 v -0.64 l 3.52,-0.48 2.29334,-2.29334 4.42666,-2.13332 1.6,-1.12 2.56,1.54666 c 1.55947,-2.13705 4.4023,-4.40875 1.92,-7.04 -0.35536,-0.37668 -0.73143,-0.7691 -1.28,-0.8 -2.17284,-0.12242 -1.08169,3.05736 -2.56,3.84 -1.91956,1.01625 -3.93886,-1.10453 -5.76,-1.44 l 4.16,-3.41334 3.36,-2.34666 0.32,-1.28 0.96,-2.82666 -2.08,-1.97334 0.0533,-4.48 1.22667,-2.88 -0.10667,-3.2 -1.06667,-1.92 -0.42666,-2.88 -2.24,0.96 -0.64,-2.24 h -0.64001 m 0.96,3.52 c 0.90981,1.53013 1.6442,1.79054 0.64,3.52 2.21472,0 2.82492,1.93215 0.64,3.04 -0.8963,0.45446 -1.81561,-0.0295 -2.56,-0.48 l 0.96,-1.28 v -0.32 c -1.19386,-1.07447 -1.78591,-4.25234 0.32,-4.48 m -8,10.24 c 0.33483,1.15668 1.53351,1.48121 1.86667,2.56 0.75346,2.43978 -5.32675,2.19021 -4.16,-0.96 0.12862,-0.34729 0.42819,-0.70729 0.69333,-0.96 0.5236,-0.49905 0.92695,-0.56915 1.6,-0.64" />
  </g>
  <g
     id="g219"
     inkscape:label="climb_right_hand_1"
     transform="translate(0.2931996,0.28502717)">
    <path
       id="path144"
       style="fill:#292929;stroke:none"
       d="m 179.7,146.82 c -1.74844,3.90829 -3.76504,9.38443 1.28,11.62666 0.54652,0.2429 1.01732,0.64625 1.6,0.8 1.40229,0.37006 2.2857,-1.09671 3.52,-0.85332 1.0152,0.20017 1.8358,1.48195 2.88,1.86666 v 2.24 l 1.6,-0.16 1.6,0.64 5.76,-4.96 -0.64,-1.92 h -0.32 c -0.70795,0.97015 -2.31715,3.31211 -3.78666,2.4 -0.5685,-0.35286 -0.61008,-1.22846 -1.33334,-1.38666 -1.10234,-0.24114 -1.83076,1.31935 -2.88,1.01332 -2.5483,-0.74325 -1.17998,-3.30853 -2.08,-4.8 -0.78377,-1.29883 -2.41982,-2.0802 -3.30666,-3.30666 -0.4699,-0.64987 -0.3934,-1.52764 -0.69334,-2.24 l -1.28,1.28 h -0.64 l -1.28,-2.24 m 1.92004,7.68004 -1.6,1.28 c -1.48211,-0.95903 -1.51723,-4.56084 0.96,-4.32 1.44477,0.14047 1.6619,1.8671 2.61334,2.61334 0.6593,0.51709 1.80848,-0.35424 2.13332,0.74666 0.3258,1.10413 -1.12412,2.38421 -2.18666,2.13334 -1.16351,-0.27473 -1.60693,-1.46199 -1.92,-2.45334" />
  </g>
  <g
     id="g228"
     inkscape:label="climb_left_hand_1"
     transform="translate(0.2931996,0.28502717)">
    <path
       id="path143"
       style="fill:#292929;stroke:none"
       d="m 138.42,146.82 -0.96,2.24 h -0.64 l -0.64,-1.28 h -0.64 c -0.25038,0.59466 -0.17602,1.35545 -0.48,1.92 -0.85787,1.59318 -3.23103,2.43805 -3.89333,4.16 -0.57505,1.49513 0.45726,3.56863 -1.70667,4.32 -0.95172,0.33046 -1.62088,-1.01223 -2.56,-1.06666 -1.06605,-0.0618 -1.03454,1.20278 -1.92,1.49332 -1.56642,0.51398 -2.84634,-1.69701 -3.84,-2.50666 l -0.58667,1.6 1.12,1.28 4.58667,4.05334 1.6,-0.69334 1.6,0.16 v -2.24 c 1.04426,-0.38473 1.86474,-1.66647 2.88,-1.86666 1.11565,-0.21999 1.97594,1.07667 3.2,0.90666 0.6732,-0.0935 1.01786,-0.51701 1.6,-0.8 0.52556,-0.25548 1.09694,-0.25828 1.6,-0.58666 2.7077,-1.76754 1.79664,-4.68729 1.33333,-7.25334 -0.23221,-1.2861 -0.73017,-2.95697 -1.65333,-3.84 m 0.32004,8.96004 -1.92,-1.28 c -0.36978,1.00369 -0.95116,2.43506 -2.24,2.50666 -0.99352,0.0552 -2.4709,-1.43777 -1.76,-2.45332 0.45604,-0.65149 1.09327,-0.096 1.65333,-0.32 1.11605,-0.44643 1.38941,-2.29426 2.66667,-2.72 2.47737,-0.8258 2.09339,3.09486 1.6,4.26666" />
  </g>
  <g
     id="g218"
     inkscape:label="climb_right_torso"
     transform="translate(0.2931996,0.28502717)">
    <path
       id="path135"
       style="fill:#292929;stroke:none"
       d="m 197.94001,139.78004 c -0.71256,0 -1.57338,0.13627 -2.24,-0.16 -0.58502,-0.26 -0.91961,-0.73385 -1.6,-0.8 -1.27643,-0.1241 -2.964,1.49821 -2.50666,2.82666 0.38031,1.10474 2.49174,3.24955 3.46666,3.84 0.651,0.39427 1.99586,0.52025 2.45334,1.06668 0.7469,0.89212 -1.82465,1.44383 -2.08,2.18666 -0.74707,2.17326 2.68438,2.99599 4.10666,3.52 l -0.42666,5.44 -2.4,3.2 -0.69334,5.76 c -0.60184,-0.35785 -1.19631,-1.20207 -1.92,-1.28 -1.34459,-0.14481 -2.92066,1.53449 -2.50666,2.88 0.71305,2.31742 4.68652,2.8273 6.66666,2.18666 1.7984,-0.58182 0.26957,-2.18014 -0.16,-3.14666 -0.29279,-0.65877 -0.2682,-1.85181 -0.16,-2.56 0.23736,-1.55362 2.87227,-3.85274 4.16,-4.69334 1.03717,-0.67703 4.31441,-0.82945 5.44,-0.26666 1.35285,0.67642 2.10516,2.56187 3.84,1.70666 1.09918,-0.54185 3.39258,-2.62231 3.78666,-3.78666 0.3734,-1.10324 -0.11873,-3.2 -1.54666,-3.2 -2.01486,0 -2.47615,3.09533 -4.16,3.68 -0.84961,0.295 -1.39611,-0.78828 -2.24,-0.8 -0.75801,-0.0105 -1.56379,0.69308 -2.24,0.96 -0.17414,-0.6016 -0.50654,-1.30612 -0.16,-1.92 0.3608,-0.63914 1.18377,-0.71451 1.76,-1.06666 1.14461,-0.69949 2.54791,-1.70315 3.84,-2.08 0.52551,-0.15328 1.09336,0.0595 1.6,-0.21334 0.62781,-0.33805 1.32764,-1.23169 1.81334,-1.76 0.37135,-0.40391 1.21535,-1.05232 1.33332,-1.6 0.20668,-0.95955 -0.91539,-2.05968 -1.86666,-1.86666 -0.78387,0.15904 -0.90828,1.06728 -1.6,1.33332 -0.49414,0.19006 -1.37947,-0.0924 -1.92,-0.10666 -0.12301,-1.13778 -1.01894,-1.25395 -1.33334,-2.24 -0.61961,-1.94328 0.56592,-4.41485 -0.42666,-6.4 -0.40646,-0.81293 -1.39328,-1.6582 -2.08,-2.24 -1.9708,-1.66971 -7.65312,-1.60851 -8,1.6 m 1.6,1.28 h 0.64 l 0.64,-1.28 h 0.64 c 0.3077,0.73077 0.56469,1.76187 0.16,2.56 -0.97853,1.92987 -3.43223,1.30943 -3.94666,-0.64 -0.15658,-0.59337 0.15807,-1.33051 0.26666,-1.92 l 1.6,1.28 M 200.18,146.5 v 2.56 h -0.64 v -2.56 h 0.64 m 2.56,1.28 v 2.56 h -0.64 c -0.4741,-1.12604 -0.41396,-1.87801 0.64,-2.56 m 7.04,1.28 c 0,0.69596 0.15295,1.5962 -0.16,2.24 -1.16137,2.38912 -4.0526,2.2332 -6.24,1.6 0.28326,-2.62016 2.37346,-2.06744 4.16,-2.61334 0.84816,-0.25916 1.37389,-0.97594 2.24,-1.22666" />
  </g>
  <g
     id="g227"
     inkscape:label="climb_left_torso"
     transform="translate(0.2931996,0.28502717)">
    <path
       id="path133"
       style="fill:#292929;stroke:none"
       d="m 108.66,149.06 c -0.58329,0.0153 -1.67906,0.41381 -2.18667,0.16 -0.61197,-0.30599 -0.58676,-1.22335 -1.33333,-1.38666 -0.95946,-0.20988 -2.05921,0.9177 -1.86667,1.86666 0.1274,0.6279 0.90311,1.16222 1.33334,1.6 2.05659,2.09267 4.74147,2.51831 7.25333,4.05334 0.80202,0.49012 2.60476,0.97093 1.76,2.34666 -0.66697,1.08621 -1.55023,-0.3082 -2.4,-0.32 -0.82592,-0.0115 -1.42161,0.98536 -2.24,0.74666 -0.37468,-0.10928 -0.71143,-0.46635 -0.96,-0.74666 -0.8228,-0.92784 -3.5827,-4.76319 -4.69333,-1.92 -0.81099,2.07611 0.78358,3.3126 2.08,4.58666 0.58644,0.57633 1.13419,1.40859 1.97333,1.65334 1.57369,0.45899 2.29441,-1.52929 3.52,-1.97334 3.44657,-1.24875 6.11592,0.79344 8.32,3.09334 1.06303,1.10924 1.68648,2.58348 1.22667,4.16 -0.25887,0.88754 -2.25711,2.72873 -0.58667,3.41334 2.06929,0.84806 5.73984,0.12045 6.88,-1.86668 0.79063,-1.37793 -1.01415,-3.28726 -2.4,-3.14666 -0.89981,0.0913 -1.36795,1.02074 -2.24,1.28 -0.32877,-1.78479 0.15606,-4.08175 -0.42667,-5.76 -0.42347,-1.21959 -1.73741,-1.76818 -2.29333,-2.88 -0.55363,-1.10726 -0.0927,-2.94789 -0.16,-4.16 -0.023,-0.41334 -0.26687,-0.86987 -0.10667,-1.28 0.58724,-1.50332 3.3938,-1.06589 3.89334,-2.88 0.453,-1.64512 -1.40098,-1.91993 -2.50667,-2.24 0.64227,-1.58424 2.2585,-1.30898 3.52,-2.34666 0.79018,-0.64999 2.27736,-2.50278 2.72,-3.41334 0.65069,-1.33858 -1.09969,-2.98836 -2.4,-2.88 -1.36711,0.11392 -2.33855,0.96 -3.84,0.96 -0.30822,-2.85106 -5.50502,-3.32813 -7.57333,-2.08 -2.48564,1.49996 -2.98667,3.89599 -2.98667,6.56 0,0.71615 0.31006,2.1315 0.0533,2.77334 -0.36794,0.91984 -1.2084,0.87105 -1.33333,2.02666 m 8.96004,-9.27996 1.28,1.28 1.6,-1.28 c 0.0542,0.68678 0.45887,1.58793 0.16,2.24 -0.78821,1.71974 -2.91349,2.14729 -3.84,0.32 -0.40468,-0.79811 -0.14769,-1.82924 0.16,-2.56 h 0.64 M 118.9,146.5 v 2.56 h -0.64 v -2.56 h 0.64 m -2.88,1.28 0.32,2.56 h -0.96 c -0.34648,-1.19694 -0.45899,-1.84889 0.64,-2.56 m -7.04,1.28 1.92,1.22666 2.50667,0.21334 1.65333,1.44 v 0.96 c -1.21292,0.35111 -3.24316,0.68904 -4.48,0.21334 -1.53431,-0.59012 -2.55183,-2.74459 -1.6,-4.05334" />
  </g>
  <g
     id="g220"
     inkscape:label="climb_right_hand_2"
     transform="translate(0.2931996,0.28502717)">
    <path
       id="path124"
       style="fill:#292929;stroke:none"
       d="m 178.1,130.49996 -0.69334,2.50666 L 175.54,133.7 c 1.09789,1.41157 1.2934,2.39443 0,3.84 v 0.32 l 0.96,3.2 c -0.98797,-0.20799 -1.62625,-0.86209 -2.56,-1.17334 -1.88623,-0.62873 -3.95457,0.1914 -5.01334,1.81334 -0.5816,0.89096 -0.63762,1.72282 -1.38666,2.56 v 0.32 l 3.52,4.48 -0.8,1.92 -1.44,4.16 c 1.54272,-0.54742 1.72815,-1.72924 2.61334,-2.88 0.37145,-0.48289 0.96686,-0.67 1.17332,-1.28 0.81609,-2.41115 -0.38307,-4.48 -2.82666,-4.48 0,-1.53472 0.38106,-1.76213 1.12,-2.98666 0.27707,-0.45916 0.0693,-1.01981 0.32,-1.49334 0.91656,-1.73128 2.18094,-0.66979 3.04,0.32 0.27231,0.31374 0.61326,0.57586 0.8,0.96 0.62131,1.27812 -0.99898,2.27523 -1.12,3.52 -0.12742,1.31057 0.59588,1.55801 1.12,2.56 0.28018,0.53562 0.31059,1.33476 0.48,1.92 h 0.64 l 0.21334,-2.24 -0.96,-1.92 2.02666,-2.56 v -0.32 l -0.96,-3.2 c 1.3177,0.39176 1.83641,1.70588 2.98666,2.4 1.33676,0.80666 3.52133,0.1923 4.05334,-1.12 0.69729,0.53791 1.89906,1.39031 2.18666,2.24 0.27197,0.80355 -0.2157,1.78533 0.21334,2.56 0.50176,0.90596 1.70565,1.33971 2.29334,2.24 0.39354,0.60287 0.38248,1.33056 0.8,1.92 1.78711,2.52299 4.04565,3.42177 6.98666,2.88 l -1.6,-1.33334 -3.04,-3.14666 0.8,-4.16 c -2.18652,0 -3.60809,-0.66235 -5.12,-2.24 -0.31781,-0.33164 -1.10799,-0.94431 -1.01334,-1.49334 0.0692,-0.40143 0.7007,-0.68143 0.85334,-1.06666 0.28818,-0.72733 0.37568,-2.40073 0.10666,-3.14666 -0.33646,-0.93293 -1.53961,-1.52151 -2.13332,-2.29334 -0.78723,-1.02338 -1.28119,-2.42408 -1.97334,-3.52 l -1.28,1.28 -3.52,-2.56 m 7.36,9.6 -3.52,-1.28 v 0.64 l 1.28,0.64 c -0.22742,1.08028 -1.16525,2.72826 -2.56,2.08 -1.42668,-0.66311 -2.85949,-3.85736 -2.56,-5.28 l 1.92,0.96 c 0.2157,-0.68307 0.1435,-2.94543 0.69334,-3.25334 0.80811,-0.45254 1.65854,0.47629 2.13332,1.01334 1.19906,1.35631 3.43834,2.52059 2.61334,4.48" />
  </g>
  <g
     id="g229"
     inkscape:label="climb_left_hand_2"
     transform="translate(0.2931996,0.28502717)">
    <path
       id="path123"
       style="fill:#292929;stroke:none"
       d="m 139.38,130.49996 -2.56,2.56 -0.64,-1.28 h -0.64 c -0.69518,1.1007 -1.21514,2.49328 -1.97333,3.52 -0.6577,0.89064 -1.99351,1.50311 -2.4,2.56 -0.67146,1.7458 0.64731,2.43293 0.96,3.84 0.12904,0.58069 -0.45643,1.20488 -0.8,1.6 -1.30985,1.50633 -3.10744,2.24 -5.06667,2.24 l 0.8,4.16 -3.04,3.14666 -1.6,1.33334 c 2.88295,0.53107 5.25172,-0.30392 6.93333,-2.88 0.46232,-0.70822 0.51227,-1.52848 1.01334,-2.24 0.56642,-0.80432 1.68062,-1.14033 2.13333,-1.92 0.49687,-0.8557 -0.14935,-2.00835 0.32,-2.88 0.40588,-0.75377 1.10205,-1.08641 1.44,-1.92 2.31132,1.78301 4.12136,1.72822 6.18667,-0.37334 0.45852,-0.46656 1.14568,-0.92012 1.38666,-1.54666 0.2281,-0.59305 0.73066,-2.28655 0.64,-2.88 -0.12234,-0.80082 -0.64497,-1.34686 -0.53333,-2.24 0.0837,-0.66994 0.47048,-1.27582 0.64,-1.92 -2.02271,-0.0532 -1.77602,-1.27715 -2.24,-2.88 h -0.96 m -1.28,7.36004 2.24,-0.96 c 0,1.43257 -0.86291,3.75996 -1.92,4.8 -1.50007,1.47587 -2.87206,-0.0423 -3.2,-1.6 l 1.28,-0.64 v -0.64 l -3.52,1.28 c -0.7962,-1.89096 1.59049,-3.53033 2.88,-4.8 0.44849,-0.44158 1.49447,-1.26944 2.08,-0.53334 0.38931,0.48941 0.10592,2.40834 0.16,3.09334" />
  </g>
</svg>
