<?xml version="1.0" encoding="UTF-8" standalone="no"?>
<!-- Created with Inkscape (http://www.inkscape.org/) -->

<svg
   version="1.1"
   id="svg1"
   width="318.72"
   height="202.56"
   viewBox="0 0 318.72 202.56"
   sodipodi:docname="smoke-animation.svg"
   inkscape:version="1.4.3 (0d15f75, 2025-12-25)"
   xmlns:inkscape="http://www.inkscape.org/namespaces/inkscape"
   xmlns:sodipodi="http://sodipodi.sourceforge.net/DTD/sodipodi-0.dtd"
   xmlns="http://www.w3.org/2000/svg"
   xmlns:svg="http://www.w3.org/2000/svg">
  <defs
     id="defs1" />
  <sodipodi:namedview
     id="namedview1"
     pagecolor="#ffffff"
     bordercolor="#000000"
     borderopacity="0.25"
     inkscape:showpageshadow="2"
     inkscape:pageopacity="0.0"
     inkscape:pagecheckerboard="0"
     inkscape:deskcolor="#d1d1d1"
     inkscape:zoom="9.5627774"
     inkscape:cx="121.25138"
     inkscape:cy="92.180332"
     inkscape:window-width="3840"
     inkscape:window-height="2054"
     inkscape:window-x="-11"
     inkscape:window-y="-11"
     inkscape:window-maximized="1"
     inkscape:current-layer="svg1"
     showguides="true"
     showgrid="false" />
  <g
     id="g17"
     inkscape:label="smoke">
    <g
       id="g24"
       inkscape:label="left2">
      <path
         id="path104"
         style="fill:#292929;stroke:none"
         d="m 96.5,122.82 c 2.03602,-0.82542 1.1452,-2.69293 -0.32,-3.78667 -1.51123,-1.12811 -2.65005,-0.11209 -4.16,-0.42666 -0.870302,-0.18132 -1.285957,-1.22667 -2.24,-1.22667 -1.321523,0 -3.628222,2.54132 -3.52,3.84 0.06269,0.75224 0.625264,1.23581 0.85333,1.92 0.291358,0.87406 -0.194023,2.04598 0.53334,2.77334 0.732285,0.73228 1.898496,0.22957 2.77333,0.53332 0.718457,0.24947 1.189161,0.90683 1.92,1.12 1.68364,0.49107 5.3185,-0.15784 5.12,-2.50666 -0.0676,-0.80037 -0.67485,-1.51764 -0.96,-2.24 m -4.8,-1.6 h 0.32 c 0.197246,-0.3841 0.368819,-0.90093 0.74667,-1.17333 2.11014,-1.52126 3.34711,1.57383 1.49333,2.77333 1.06728,1.35189 1.6792,3.96664 -0.96,3.52 -0.820312,-0.13883 -1.12875,-0.98149 -1.92,-1.22666 -0.782353,-0.24242 -2.161113,0.34956 -2.72,-0.42668 -1.090966,-1.51524 -0.06287,-6.94284 2.50667,-4.37333 0.293721,0.29371 0.348711,0.54715 0.53333,0.90667"
         inkscape:label="left2" />
    </g>
    <g
       id="g23"
       inkscape:label="left1">
      <path
         id="path103"
         style="fill:#292929;stroke:none"
         d="m 68.339999,130.5 c -2.30917,-1.37303 -0.39809,-1.93031 0.21334,-3.52 0.48336,-1.25676 0.32785,-1.80628 1.38666,-2.88 1.15532,-1.1716 2.88136,-2.3604 4.48,-2.82667 1.179298,-0.34397 2.622433,0.065 3.840001,-0.0533 1.916553,-0.18633 5.111963,-2.01369 5.76,-3.84 -1.247773,0 -1.506699,0.56638 -2.56,0.90667 -0.601543,0.19434 -1.294873,0.004 -1.92,0.16 -0.849443,0.21236 -1.429414,0.88357 -2.24,1.12 -1.084306,0.31626 -2.401425,-0.0554 -3.520001,0.0533 -2.36671,0.2301 -4.78078,1.07953 -6.29333,2.98667 -0.46391,0.58491 -0.28094,1.16185 -0.48,1.81333 -0.20023,0.65527 -0.70444,1.30221 -1.01333,1.92 -0.40872,0.81744 -1.49308,1.60471 -1.44,2.56 0.0896,1.61234 3.49147,4.33055 3.78666,1.6 M 83.7,121.54 l 0.32,0.32 -0.32,-0.32 m -5.44,2.56 c 0.443379,1.20924 3.407608,1.49906 4.37333,0.53334 C 83.168575,124.09808 83.06,123.18492 83.06,122.5 l -4.8,1.6 m -2.56,13.76 2.88,-0.42666 0.96,1.70666 c 1.97751,-0.5204 2.643145,-1.97986 4.16,-3.14666 0.919766,-0.70752 2.297354,-0.87603 3.14667,-1.76 0.554854,-0.5775 0.341416,-1.55561 -0.32,-1.97334 -1.522129,-0.96135 -4.085674,0.57529 -5.38667,1.28 -0.688271,0.37281 -1.673427,1.37469 -2.56,0.96 -0.665439,-0.31125 -0.695595,-1.18313 -0.96,-1.76 -0.222451,-0.48535 -0.857939,-1.02777 -0.74667,-1.6 0.09908,-0.50958 0.804854,-1.14777 1.06667,-1.6 l -1.22667,-1.28 -0.42666,-2.82666 h -3.626671 l -0.16,3.14666 1.49334,4.48 0.26666,1.86666 1.706671,0.74668 L 75.7,137.86 m -6.720001,-8.32004 0.32,0.32 -0.32,-0.32"
         inkscape:label="path" />
    </g>
    <g
       id="g18"
       inkscape:label="right4">
      <path
         id="path82"
         style="fill:#292929;stroke:none"
         d="m 220.98003,98.660001 c -1.64637,0.82318 -1.35805,2.048399 -2.08,3.306669 -1.45861,2.54215 -5.63934,4.22094 -2.4,7.41333 0.72424,0.71375 1.85318,0.83731 2.45334,1.6 0.97385,1.23759 1.25361,2.81157 2.98666,3.41333 2.55088,0.88572 2.87307,-1.78562 4.8,-2.4 1.18959,-0.37929 2.69348,0.35993 3.84,-0.21333 1.54117,-0.77059 2.70074,-3.26709 1.76,-4.90667 -0.37705,-0.65716 -1.03547,-0.79595 -1.12,-1.65333 -0.11174,-1.13331 1.0702,-1.74656 0.96,-2.88 -0.15383,-1.58226 -2.87408,-3.951529 -4.48,-3.839999 -0.96033,0.0667 -1.65529,1.06667 -2.56,1.06667 -0.65576,0 -1.03158,-0.75013 -1.6,-0.96 -0.63623,-0.23491 -1.94914,-0.2521 -2.56,0.0533 m 3.84,3.679999 c 1.02734,-0.59479 1.85863,-1.63908 3.2,-1.17333 1.9216,0.66722 2.60717,3.16543 0.96,4.37333 v 0.32 c 1.92385,1.14391 1.54059,3.61618 -0.64,4.37333 -1.22894,0.42672 -2.41752,-0.12715 -3.52,-0.53333 -0.0976,1.23649 -0.7551,2.40221 -2.24,1.86667 -1.04418,-0.37659 -0.57545,-2.27825 -1.33334,-3.09334 -0.6882,-0.74014 -1.76703,-0.62837 -2.50666,-1.33333 -1.17672,-1.12155 -0.84853,-3.02417 0.96,-3.2 1.05203,-0.10228 2.07693,0.64 3.2,0.64 v -0.32 c -1.48244,-0.47961 -1.00059,-2.27431 -0.64,-3.52 1.26725,0.23344 2.05428,0.35252 2.56,1.6" />
    </g>
    <g
       id="g22"
       inkscape:label="right3">
      <path
         id="path91"
         style="fill:#292929;stroke:none"
         d="m 244.66,107.88664 c -0.75941,0.18985 -1.23541,0.70906 -1.92,1.01333 -1.55035,0.68904 -2.92355,0.08 -4.10666,1.76 -0.82568,1.17248 -0.0423,1.82486 0.42666,2.88 0.79879,1.79727 0.11977,3.49988 2.4,4.64 0.75752,0.37876 2.756,0.35016 3.52,0 0.53746,-0.24634 0.95842,-0.89737 1.6,-0.90667 0.97615,-0.0142 1.38342,1.05285 2.56,0.69334 3.60861,-1.10263 0.29846,-4.14976 -0.48,-5.70667 -0.39955,-0.7991 0.0619,-1.74671 -0.21334,-2.56 -0.52844,-1.56128 -2.31348,-2.18163 -3.78666,-1.81333 m 1.6,4.37336 v 0.32 c 1.11817,0.64736 3.68623,3.64147 0.64,3.2 -0.92172,-0.13359 -1.26508,-1.36557 -2.24,-1.17333 -1.74203,0.3435 -2.18351,1.68555 -4.16,0.85333 l 0.96,-1.6 v -0.32 c -1.17514,-0.69873 -1.80185,-2.59022 0,-3.14667 1.0015,-0.30929 1.83584,0.33496 2.56,0.90667 l 0.96,-2.24 c 1.5792,0.45713 3.04231,2.05968 1.28,3.2"
         inkscape:label="path" />
    </g>
    <g
       id="g21"
       inkscape:label="right2">
      <path
         id="path101"
         style="fill:#292929;stroke:none"
         d="m 225.14,116.26 c -0.45228,0.21986 -0.77566,0.80393 -1.28,0.90667 -2.23205,0.45468 -3.59121,-0.54985 -5.33334,1.6 -1.32504,1.63514 0.32649,1.986 0.53334,3.41333 0.12877,0.88851 -0.76553,1.78031 -0.48,2.56 0.61744,1.68607 3.49684,2.00138 4.96,1.49334 0.7185,-0.24948 1.18916,-0.90684 1.92,-1.12 0.61859,-0.18043 1.30217,0.0671 1.92,-0.16 1.26676,-0.46572 1.10068,-1.69744 1.28,-2.77334 0.1266,-0.75961 0.70791,-1.20449 0.90666,-1.92 0.36688,-1.32079 -1.0533,-2.18733 -1.86666,-2.98667 -0.74404,-0.73122 -1.39449,-1.5799 -2.56,-1.01333 m -0.96,4.32 c 0.17711,-0.96142 1.48885,-3.57661 2.72,-1.86667 0.43992,0.611 0.43992,4.08232 0,4.69333 -0.5618,0.78028 -1.93646,0.17685 -2.72,0.42668 -1.09365,0.34869 -1.45908,1.68579 -2.88,1.17332 -1.34898,-0.48652 -0.31637,-2.25194 -0.26666,-3.14666 0.0736,-1.32572 -0.62387,-2.16496 -0.0533,-3.52 l 3.2,2.24" />
    </g>
    <g
       id="g20"
       inkscape:label="right1">
      <path
         id="path110"
         style="fill:#292929;stroke:none"
         d="m 232.82,120.25996 c -0.36129,1.96123 0.39383,2.40169 0.90666,4.16 0.21641,0.74193 0.0324,1.49615 0.37334,2.24 0.94686,2.06586 2.83693,2.79821 4.8,1.92 l -3.36,-2.61334 -0.21334,-2.50666 -2.50666,-3.2 m 5.44,2.56004 0.32,0.32 -0.32,-0.32 m 0.96,8 v 0.64 c 0.63828,0.40312 1.58631,0.68363 1.49334,1.6 -0.11592,1.14251 -2.83266,3.4642 -0.53334,4.10666 1.79965,0.50285 2.40217,-2.06235 3.04,-3.14666 0.50891,-0.86512 1.36311,-0.7857 2.02666,-1.38666 0.61379,-0.55589 1.59287,-2.62477 1.86668,-3.41334 1.12311,-3.23457 -2.67512,-4.15154 -4.64,-2.18666 -0.41699,0.41699 -0.44623,1.03418 -0.8,1.49332 -0.65519,0.85035 -1.59391,1.66617 -2.45334,2.29334 m -3.2,4.16 c -0.94812,-0.57387 -1.98162,-0.31626 -2.88,-0.8 -0.91443,-0.49238 -1.39582,-1.72504 -2.29334,-2.24 -1.33969,-0.76867 -2.58162,0.35396 -2.13332,1.76 0.24252,0.76062 0.98379,1.09185 1.54666,1.6 0.97244,0.8779 2.89092,2.71322 4.42666,1.76 0.63108,-0.3917 1.01508,-1.44347 1.33334,-2.08 m 3.2,-10.88004 v 0.64 c 1.21074,0.50978 2.39442,0.57162 2.56,-0.96 1.69469,0 2.90363,-1.49894 4.48,-1.28 1.95297,0.27124 1.82922,1.82875 2.29334,3.2 0.19625,0.57984 0.78785,0.76221 1.06666,1.28 0.56986,1.05832 -0.22033,2.21328 -0.48,3.2 1.50447,-0.0396 3.47506,-1.34887 2.82666,-3.14666 -0.20033,-0.55549 -0.79965,-0.80694 -1.06666,-1.33334 -0.81283,-1.60244 -0.74932,-3.33466 -2.72,-4.32 -0.82158,-0.41079 -3.8992,-0.47923 -4.69334,0 -0.87111,0.52567 -1.25707,1.7434 -2.08,2.24 -0.59848,0.36115 -1.52822,0.20277 -2.18666,0.48 m -7.46662,-5.01329 0.21332,0.10666 -0.21332,-0.10666"
         inkscape:label="right1" />
    </g>
    <g
       id="g25"
       inkscape:label="left3">
      <path
         id="path88"
         style="fill:#292929;stroke:none"
         d="m 74.153369,106.65997 c -2.08076,1.19388 -1.00288,2.65275 -1.81334,4.32 -0.91293,1.87803 -3.67128,3.75162 -0.69333,5.6 1.23384,0.76583 2.04977,-0.7606 3.093331,-0.58667 0.581309,0.0969 1.030381,0.76222 1.6,0.96 0.966026,0.33543 2.666729,0.237 3.52,-0.32 0.717784,-0.46855 1.612012,-1.29989 1.86667,-2.13333 0.223145,-0.73029 -0.108457,-1.51598 0.21333,-2.24 0.468955,-1.05515 1.252364,-1.70751 0.42667,-2.88 -1.122265,-1.59361 -2.235429,-1.18959 -3.78667,-1.70667 -1.365693,-0.45524 -2.828261,-1.93045 -4.426661,-1.01333 m 2.826631,3.36 c 0.791182,-0.62461 1.795371,-1.29153 2.88,-0.90667 1.71708,0.60929 0.674678,2.55524 -0.32,3.14667 v 0.32 c 1.71626,1.11052 0.399121,2.39636 -1.28,1.81333 -0.748027,-0.25974 -1.389804,-1.25554 -2.24,-1.12 -0.829853,0.13229 -1.024365,1.13581 -1.920001,1.22667 -2.87182,0.29134 -0.36876,-2.61598 0.640001,-3.2 -0.241491,-0.30589 -0.828861,-0.83948 -0.853331,-1.28 -0.0471,-0.84795 1.139611,-2.48726 2.133331,-2.08 0.67711,0.2775 0.785118,1.47587 0.96,2.08" />
    </g>
    <g
       id="g19"
       inkscape:label="left4">
      <path
         id="path84"
         style="fill:#292929;stroke:none"
         d="m 92.66003,101.16664 c -1.228466,0.25953 -3.970752,2.72707 -3.84,4.05333 0.105957,1.07467 1.256739,1.69644 0.90667,2.88 -0.1929,0.6522 -0.743496,0.85112 -1.06667,1.38667 -0.467363,0.77449 -0.275439,2.70951 0.21333,3.41333 1.748584,2.51796 3.599249,0.62523 5.70667,1.76 1.81064,0.97496 2.23841,3.18277 4.8,2.29333 1.59764,-0.55474 1.7946,-1.93056 2.66667,-3.09333 1.02096,-1.36129 2.97235,-1.31562 3.62666,-3.2 0.67562,-1.94575 -1.19033,-3.54224 -2.34666,-4.8 -1.39379,-1.51605 -1.90905,-5.02314 -4.58667,-4.8 -1.0523,0.0877 -1.95878,1.17333 -2.88,1.17333 -1.15621,0 -1.82546,-1.35705 -3.2,-1.06666 m 6.08,2.13333 -0.32,4.16 c 1.12205,-0.0295 2.17007,-1.15796 3.2,-0.85333 0.33492,0.0991 0.68049,0.32655 0.90667,0.58666 2.0939,2.408 -1.68754,2.83648 -2.77334,4.10667 -0.71789,0.83979 -0.29402,2.04985 -0.85333,2.82667 -1.23116,1.70995 -2.5429,-0.90526 -2.72,-1.86667 -1.80193,0.90097 -5.134619,1.54112 -5.44,-1.6 -0.09779,-1.00586 0.87543,-1.37023 0.96,-2.24 0.125918,-1.29511 -1.259589,-2.0953 -0.21333,-3.52 0.875332,-1.19194 3.24164,-1.51978 3.73333,0 l 3.52,-1.6" />
    </g>
  </g>
</svg>
