<?xml version="1.0" encoding="UTF-8" standalone="no"?>
<!-- Created with Inkscape (http://www.inkscape.org/) -->

<svg
   version="1.1"
   id="svg1"
   width="318.72"
   height="202.56"
   viewBox="0 0 318.72 202.56"
   sodipodi:docname="torch_attack.svg"
   inkscape:version="1.4.2 (f4327f4, 2025-05-13)"
   xmlns:inkscape="http://www.inkscape.org/namespaces/inkscape"
   xmlns:sodipodi="http://sodipodi.sourceforge.net/DTD/sodipodi-0.dtd"
   xmlns="http://www.w3.org/2000/svg"
   xmlns:svg="http://www.w3.org/2000/svg">
  <defs
     id="defs1" />
  <sodipodi:namedview
     id="namedview1"
     pagecolor="#ffffff"
     bordercolor="#000000"
     borderopacity="0.25"
     inkscape:showpageshadow="2"
     inkscape:pageopacity="0.0"
     inkscape:pagecheckerboard="0"
     inkscape:deskcolor="#d1d1d1"
     inkscape:zoom="4.7813887"
     inkscape:cx="136.98949"
     inkscape:cy="150.06101"
     inkscape:window-width="3840"
     inkscape:window-height="2054"
     inkscape:window-x="-11"
     inkscape:window-y="-11"
     inkscape:window-maximized="1"
     inkscape:current-layer="g210"
     showguides="true" />
  <g
     id="g7"
     inkscape:label="throw_right_hand_1">
    <path
       id="path5"
       style="fill:#292929;stroke:none"
       d="m 285.00546,128.99611 c 1.07422,0.42403 3.71502,2.20041 3.73334,3.52 0.0137,0.98889 -1.25086,1.41308 -0.69334,2.56 0.79354,1.63242 2.41223,1.68012 3.68,2.61334 1.32984,0.9789 2.79258,2.73326 3.68,4.10666 0.93656,1.44943 -0.48848,3.10048 0.53334,4.42666 0.34086,0.4424 1.05568,1.22896 1.54666,1.49334 0.68389,0.36824 1.80877,0.16 2.56,0.16 2.02699,0 5.04219,0.20943 6.24,-1.92 1.08256,-1.92457 -0.42756,-5.04764 -0.48,-7.04 h -0.32 l -0.64,1.28 -1.38666,-3.2 -4.05334,-6.4 h -0.64 l -1.28,3.73334 -1.6,-0.53334 -0.37334,3.09334 -2.24,-1.81334 0.69334,-1.28 c -1.3151,-1.46983 -2.49945,-2.93044 -4.16,-4.10666 -0.49766,-0.35252 -1.10924,-0.38427 -1.6,-0.74668 -1.17285,-0.86611 -2.55057,-2.13106 -3.2,0.0533 m 15.36,6.40004 c 0.39803,0.6576 0.85078,1.43539 0.90666,2.24 0.0463,0.66618 -0.35658,1.24601 -0.16,1.92 0.42533,1.45834 2.23238,2.454 2.45334,3.84 0.26026,1.63244 -1.91951,4.09715 -2.88,1.92 l -1.92,1.12 -1.70666,-2.08 2.4,-2.45334 -1.65334,-1.38666 -1.28,-2.88 c 1.19875,-0.50474 1.65383,-0.18149 2.24,0.96 h 0.32 l 1.28,-3.2" />
  </g>
  <g
     id="g6"
     inkscape:label="throw_right_body">
    <path
       id="path94"
       style="fill:#292929;stroke:none"
       d="m 279.56546,124.19611 v 0.64 c -1.6783,0.48582 -2.00057,-0.12239 -3.52,-0.58666 -1.46014,-0.44616 -2.99111,-0.20791 -4.48,-0.37334 -1.41467,-0.15719 -3.44998,-2.16638 -3.84,0.32 -0.0441,0.28145 0,0.68128 0,0.96 2.22127,0 4.37324,0.0482 5.12,2.56 -0.81088,-0.0854 -1.44275,-0.54035 -2.24,-0.64 -0.40668,-0.0508 -0.90512,-0.0136 -1.28,0.16 -0.41619,0.19268 -1.16719,0.52017 -1.44,0.90666 -0.87685,1.24223 0.56588,3.4139 -0.58666,4.64 -0.63014,0.67035 -5.25398,0.54275 -3.36,2.88 0.3057,0.37724 0.81428,0.56326 1.22666,0.8 3.16299,1.8158 4.62658,-0.74666 7.68,-0.74666 0,-0.63426 0.18799,-1.62602 -0.16,-2.18666 -0.59351,-0.95623 -2.10092,-1.07613 -2.50666,-2.29334 -0.76238,-2.28718 3.14029,-2.26058 4.26666,-1.49334 1.01238,0.68959 2.1702,3.21973 2.50666,4.37334 0.60293,2.06722 -0.39808,3.98421 2.29334,4.48 0.18307,-0.25087 0.42199,-0.71974 0.69334,-0.90666 1.94369,-1.33899 2.68949,1.26357 4.10666,2.02666 0.54311,0.29244 1.32815,0.16 1.92,0.16 0.37559,0 0.8977,0.0769 1.22666,-0.16 1.31106,-0.94397 -0.35129,-2.54665 -0.74666,-3.36 -0.79892,-1.64353 -0.31857,-3.67292 -2.72,-4.37334 -1.3865,-0.4044 -2.12273,1.81505 -3.52,1.01334 -0.93592,-0.537 -0.68752,-2.41867 -0.96,-3.36 2.86914,-0.90606 4.20723,-2.85086 6.4,-4.8 1.94055,-1.72493 5.50461,-1.81623 6.88,-4.21333 0.81121,-1.41384 -0.25277,-2.91273 -0.8,-4.10667 -0.42297,-0.92284 -0.45144,-1.95051 -0.8,-2.88 -0.70125,-1.87001 -3.23592,-4.25288 -5.28,-4.48 -2.25605,-0.25068 -4.42002,0.14866 -5.97334,1.92 -0.57826,0.65942 -0.96799,1.6239 -1.70666,2.13333 -1.02939,0.70993 -3.31162,-0.66734 -3.52,1.38667 -0.0876,0.86335 0.4684,1.27601 0.90666,1.92 0.30203,0.4438 0.41744,1.11875 0.8,1.49333 1.18293,1.15826 4.4482,0.25721 5.97334,0.42667 1.18625,0.13181 3.10547,1.46606 2.82666,2.88 -0.1906,0.96666 -1.58101,1.65142 -2.50666,1.6 -1.78816,-0.0993 -2.04139,-2.64897 -3.52,-2.88 -1.20197,-0.1878 -2.44596,0.95597 -1.76,2.18667 0.46279,0.83032 1.5617,1.63348 2.4,1.97333 m 2.56,-10.88 c 0.39373,0.6622 1.22549,1.19458 1.49334,1.92 0.92268,2.49896 -2.77611,2.13778 -4.05334,1.6 v -0.64 c 1.14676,-0.83684 1.21094,-1.19778 0.96,-2.56 l 1.6,-0.32 m -19.84,10.87996 v 0.64 l 1.6,1.6 3.84,-4.16 v -0.64 l -2.72,0.0533 -0.53334,1.81333 -2.18666,0.69341 m 4.48,1.6 0.32,0.32 -0.32,-0.32" />
  </g>
  <g
     id="g12"
     inkscape:label="throw_left_hand_1">
    <path
       id="path10"
       style="fill:#292929;stroke:none"
       d="m 22.605464,133.79611 v 0.32 l 0.64,0.96 -2.29333,1.81334 -0.58667,-3.09334 -2.56,0.32 v -3.52 h -0.64 l -4.05333,6.4 -0.74667,3.2 -1.28,-1.28 h -0.32 c 0,2.13795 -1.1922902,4.73148 -0.21333,6.72 1.58981,3.22931 8.06577,3.20088 10.08,0.58666 1.02094,-1.32504 -0.40168,-3.18106 0.53333,-4.74666 0.80386,-1.346 2.654,-3.19614 4,-4 1.04155,-0.62203 2.05485,-0.66403 2.82667,-1.76 0.95555,-1.35689 -0.53359,-2.33776 -0.10667,-3.52 0.4984,-1.38019 2.5839,-2.62581 3.68,-3.52 -1.25825,-1.94457 -2.18198,-0.27627 -3.52,0.48 -2.18852,1.23699 -3.87765,2.66102 -5.44,4.64 m -4.8,4.8 c 0.48599,-1.19876 1.05524,-1.45885 2.24,-0.96 -0.21154,0.73078 -0.32427,1.59293 -0.74667,2.24 -0.50894,0.77965 -1.66557,1.35363 -1.97333,2.24 -0.65052,1.8735 2.97504,1.15622 1.70667,3.52 l -0.58667,0.53334 c -1.10803,0.70066 -1.27383,-0.53334 -2.24,-0.53334 -0.47959,0 -1.19925,0.72799 -1.6,0.96 -0.41555,-0.58485 -1.08082,-1.11147 -1.44,-1.70666 -1.20235,-1.99247 1.88042,-3.58452 2.29333,-5.33334 0.16872,-0.71459 -0.736,-4.13455 1.06667,-3.78666 0.7666,0.14793 0.74717,2.17351 1.28,2.82666" />
  </g>
  <g
     id="g11"
     inkscape:label="throw_left_body">
    <path
       id="path92"
       style="fill:#292929;stroke:none"
       d="m 37.325464,129.63611 c -0.27577,0.95264 -0.0759,2.78435 -1.01333,3.36 -1.32406,0.81302 -2.11336,-1.40805 -3.46667,-1.01334 -2.40141,0.70041 -1.92107,2.72982 -2.72,4.37334 -0.39537,0.81332 -2.05769,2.41606 -0.74667,3.36 0.32898,0.23686 0.85104,0.16 1.22667,0.16 0.57312,0 1.3478,0.13771 1.86667,-0.16 1.39898,-0.8027 2.21025,-3.36983 4.16,-2.02666 0.27134,0.18691 0.51026,0.65578 0.69333,0.90666 2.84278,-0.52367 1.61264,-2.68968 2.34667,-4.8 0.21974,-0.63177 0.81514,-0.99446 1.06667,-1.6 0.40408,-0.97279 0.40375,-1.78381 1.38666,-2.45334 1.12637,-0.76723 5.02906,-0.79384 4.26667,1.49334 -0.38392,1.15174 -1.93092,1.36574 -2.50667,2.29334 -0.34798,0.56062 -0.16,1.55241 -0.16,2.18666 l 4.8,1.6 4.48,-1.92 -0.48,-1.54666 -3.30666,-1.06668 -0.42667,-2.82666 -0.85333,-1.28 -0.8,-1.44 -3.41334,0.48 c 0.48924,-1.64562 2.65208,-3.38427 4.48,-2.4 0.65986,0.35531 0.78846,0.99062 1.6,1.12 1.35555,0.2161 1.52437,-0.59468 2.56,-1.12 0.58459,-0.29652 1.31435,-0.22498 1.92,-0.48 v -0.64 c -0.63568,-0.26766 -1.68025,-0.18692 -2.18666,-0.69334 -1.01618,-1.01617 -0.14552,-2.52906 -2.29334,-2.18666 -1.4346,0.2287 -2.72618,1.95461 -4.16,2.45334 -0.89496,0.31129 -1.95573,0.0168 -2.88,0.10666 -2.08018,0.20224 -3.72551,1.54892 -5.76,0.96 v -0.64 c 0.83826,-0.33984 1.93721,-1.14302 2.4,-1.97333 0.66655,-1.19587 -0.59421,-2.33239 -1.76,-2.18667 -1.47134,0.18391 -1.73935,2.78107 -3.52,2.88 -0.96403,0.0536 -2.26303,-0.639 -2.50667,-1.6 -0.36002,-1.4201 1.62941,-2.74697 2.82667,-2.88 1.52515,-0.16946 4.79041,0.7316 5.97334,-0.42667 0.46179,-0.45218 0.47748,-1.23895 0.85333,-1.76 0.34164,-0.47364 0.8243,-0.6753 0.85333,-1.33333 0.10469,-2.37297 -2.74251,-0.99568 -3.78666,-1.92 -0.5852,-0.51805 -0.92692,-1.3349 -1.44,-1.92 -1.55332,-1.77133 -3.71725,-2.17068 -5.97334,-1.92 -2.22025,0.2467 -4.81629,2.78474 -5.6,4.8 -0.32073,0.82473 -0.10806,1.72314 -0.48,2.56 -0.57009,1.28269 -1.55768,2.64463 -0.8,4.16 1.19632,2.39263 5.05722,2.57508 6.93333,4.26666 2.13667,1.9265 3.54539,3.80873 6.34667,4.69334 m -1.28,-16 0.64,3.52 c -1.3112,0 -5.19681,0.38348 -3.68,-2.18667 0.37188,-0.63014 1.05664,-1.0086 1.44,-1.65333 l 1.6,0.32" />
  </g>
  <g
     id="g8"
     inkscape:label="throw_right_hand_2">
    <path
       id="path65"
       style="fill:#292929;stroke:none"
       d="m 260.04546,85.796111 c 0.83012,1.43385 2.41106,2.5616 4.16,1.76 0.58096,-0.26628 0.98178,-0.79867 1.6,-1.01333 0.86108,-0.29899 1.71477,-0.0708 2.56,-0.42667 -1.1665,-4.02967 -6.01965,-1.71233 -8.32,-0.32 m 5.76,24.319999 c 0.0512,-1.94526 0.6124,-3.77299 0.64,-5.76 0.009,-0.67539 -0.0279,-1.36583 0.64,-1.76 1.64303,-0.96967 3.68156,0.30715 5.12,0.74667 1.78795,0.54632 4.89885,1.24156 6.72,0.53333 0.51445,-0.20007 0.83885,-0.76032 1.28,-1.06667 0.80168,-0.55672 1.28303,-0.35362 1.6,-1.33333 l -3.84,-1.919999 1.28,-1.92 c -0.96601,-0.27964 -2.72182,-0.0322 -3.46666,-0.74667 -0.66609,-0.63892 0.1219,-1.44213 -0.42668,-2.08 -0.51627,-0.60031 -1.464,-0.24749 -2.08,-0.74666 -1.54719,-1.25375 -1.85582,-3.08475 -3.41332,-4.32 -1.23875,-0.98246 -3.39982,-0.68924 -3.73334,0.85333 -1.38316,-0.80078 -2.69826,-1.82972 -4.48,-1.22667 -1.90641,0.64524 -4.20537,3.64736 -3.41334,5.70667 0.34205,0.88934 1.48781,1.66592 2.13334,2.34667 0.53522,0.56441 0.64906,1.18695 1.06666,1.81333 0.60543,0.908139 1.65533,1.490529 2.02668,2.559999 0.88645,2.553 -1.70139,8.32 2.34666,8.32 m 10.24,-18.559999 c 2.56127,0.47181 5.39512,3.66224 6.72,5.76 l 1.6,-0.32 c -0.1783,-1.69375 -1.17949,-3.65276 -2.61334,-4.64 -0.63805,-0.43932 -1.47465,-0.47476 -2.13332,-0.90667 -1.09232,-0.71627 -2.94555,-1.60546 -3.57334,0.10667 m -6.50666,-4.37333 0.21332,0.10666 -0.21332,-0.10666 m -0.53334,11.73336 v 0.64 l 1.28,0.639999 v 0.64 c -1.38127,0.58159 -3.25668,0.4545 -3.78666,-1.279999 -0.24834,-0.81278 0.15484,-1.75164 -0.10668,-2.56 -0.39867,-1.23224 -1.38365,-0.95315 -2.18666,-0.32 -0.33197,0.26174 -0.66478,0.66478 -0.96,0.96 -0.96508,-0.62446 -2.73408,-3.54655 -2.56,-4.8 0.14207,-1.02293 1.40885,-2.4105 2.56,-2.18667 1.5994,0.31098 1.88682,2.74966 2.88,3.78667 1.38213,1.44311 2.54172,1.04076 4.16,1.76 1.511,0.67155 2.90817,1.43084 3.94666,2.72 0.55533,0.68937 2.45506,2.425449 1.12,3.359999 -0.8276,0.57932 -1.65924,-0.39743 -2.18666,-0.90667 -1.31808,-1.27265 -2.18367,-2.973419 -4.16,-2.453329 m -2.56,-8.32 c 0.58297,0 1.36434,-0.13474 1.92,0.0533 1.05785,0.35805 2.6015,2.24459 1.76,3.41334 -0.90226,1.25315 -2.97453,-0.10943 -3.52,-1.01334 -0.37861,-0.62742 -0.16,-1.74569 -0.16,-2.45333 m 2.88,21.759999 c -0.61191,2.1139 -0.17359,3.14919 -2.56,3.84 0.20063,0.76239 0.52957,1.65283 1.28,2.08 0.66504,0.37856 1.29531,0.1424 1.86666,0.8 0.69092,0.79522 0.80703,1.81181 1.65334,2.56 0.52231,0.46176 1.52449,1.0382 2.08,0.26667 0.94891,-1.31793 -1.07631,-2.58272 -1.65334,-3.46667 -0.82769,-1.26796 -0.3068,-3.08615 -0.8,-4.48 -0.21617,-0.61091 -0.88963,-1.06382 -1.22666,-1.6 h -0.64" />
  </g>
  <g
     id="g13"
     inkscape:label="throw_left_hand_2">
    <path
       id="path62"
       style="fill:#292929;stroke:none"
       d="m 47.885464,86.116111 c 0.93389,0.27034 1.98497,0.1159 2.88,0.42667 0.61819,0.21465 1.01908,0.74708 1.6,1.01333 1.72586,0.79102 2.93629,-0.496 4.16,-1.44 -0.54069,-0.68815 -1.14324,-0.68847 -1.92,-1.12 -2.51862,-1.39923 -5.03418,-1.79187 -6.72,1.12 m -10.56,11.52 1.28,1.92 -3.84,1.919999 c 0.32176,0.99452 0.80997,0.74992 1.6,1.33333 0.46975,0.34689 0.70813,0.90005 1.28,1.12 1.76581,0.67916 4.68284,-0.062 6.4,-0.58666 1.50225,-0.45902 3.77796,-1.72755 5.44,-0.74667 0.66793,0.39419 0.63062,1.08461 0.64,1.76 0.0277,1.99743 0.58893,3.81937 0.64,5.76 4.24395,0 1.1675,-6.175 2.4,-8.64 0.4447,-0.8894 1.42518,-1.41777 1.97334,-2.239999 0.33638,-0.50457 0.42551,-1.11317 0.8,-1.6 0.59374,-0.77187 1.79685,-1.36038 2.13333,-2.29333 1.20916,-3.35269 -2.6156,-6.54977 -5.70667,-6.02667 -0.86731,0.14678 -1.36091,1.02553 -2.24,1.28 -0.16814,-1.55531 -2.24547,-1.77956 -3.41333,-0.85333 -1.52824,1.21204 -1.90127,3.09471 -3.41333,4.32 -0.62845,0.50926 -1.52646,0.15778 -2.08,0.74666 -0.70976,0.75506 0.15995,1.71625 -1.01334,2.34667 -0.76211,0.40949 -2.01853,0.23062 -2.88,0.48 m -5.44,-0.96 1.92,0.64 c 1.60505,-2.54133 4.17696,-4.5408 6.72,-6.08 -1.16425,-1.21716 -2.58663,-0.48188 -3.84,0.26667 -0.61123,0.36504 -1.32382,0.41083 -1.92,0.8 -1.47946,0.96575 -2.07232,2.9118 -2.88,4.37333 m 14.93334,-9.49333 0.21333,0.10666 -0.21333,-0.10666 m 3.30666,3.41333 c 0,0.70771 0.21864,1.82587 -0.16,2.45333 -0.54546,0.9039 -2.61773,2.26648 -3.52,1.01334 -0.8415,-1.16875 0.70215,-3.0553 1.76,-3.41334 0.55562,-0.18806 1.33711,-0.0533 1.92,-0.0533 m 3.52,7.04 h -0.32 c -0.29527,-0.29528 -0.62798,-0.69821 -0.96,-0.96 -0.80301,-0.63315 -1.788,-0.91225 -2.18666,0.32 -0.26153,0.80836 0.14168,1.74722 -0.10667,2.56 -0.52999,1.734499 -2.40539,1.861589 -3.78667,1.279999 v -0.64 l 1.28,-0.639999 v -0.64 c -1.91373,-0.50361 -2.95855,1.152069 -4.21333,2.453329 -0.50908,0.52793 -1.29962,1.49027 -2.13333,0.90667 -1.50386,-1.05271 1.3671,-3.957149 2.18666,-4.586669 1.87869,-1.44306 4.68236,-1.15811 6.4,-2.61333 1.28966,-1.09264 1.77382,-4.08714 3.52,-4.42667 1.42617,-0.27731 2.73566,1.56195 2.56,2.82667 -0.11919,0.85817 -0.73519,1.23421 -1.17333,1.92 -0.46811,0.73269 -0.55305,1.51712 -1.06667,2.24 m -7.04,14.399969 c -0.42292,0.59522 -1.01093,1.21396 -1.22666,1.92 -0.42544,1.39235 0.0119,3.23616 -0.8,4.48 -0.57702,0.88393 -2.60225,2.14874 -1.65334,3.46667 0.42265,0.58701 1.18665,0.37818 1.65334,0 1.05319,-0.85346 1.18024,-2.24211 2.08,-3.04 0.53338,-0.47301 1.25098,-0.24558 1.81333,-0.58667 0.72518,-0.43986 1.11638,-1.33056 1.33333,-2.08 -2.83786,-0.52277 -1.70893,-2.13868 -2.56,-4.16 h -0.64" />
  </g>
  <g
     id="g202"
     inkscape:label="torch_right_3"
     transform="translate(-0.93453524,0.09611017)">
    <path
       id="path46"
       style="fill:#292929;stroke:none"
       d="m 221.29997,73.540071 -4.10666,1.38667 -0.53334,1.76 1.76,0.10666 2.88,-3.25333 m -16.64,15.04 v -0.32 c -1.73199,-1.45113 -1.96814,-3.46773 0.64,-4.37333 1.00943,-0.3505 2.16537,0.0566 3.2,-0.21334 0.95883,-0.25013 1.57061,-0.96504 2.56,-1.17333 l -1.28,1.6 v 0.64 l 3.84,-0.96 0.32,1.28 c -2.26789,0.24517 -2.17635,3.11467 -3.52,4.48 -1.35115,1.37296 -2.20109,0.19837 -2.24,-1.28 h -0.64 c -0.0766,2.90947 -2.35351,1.8469 -4.16,2.56 v 0.64 c 1.30244,1.00473 2.29861,2.18061 4.16,1.49333 0.53656,-0.19812 0.96141,-1.0131 1.6,-0.90666 0.59014,0.0984 1.1252,0.94398 1.6,1.28 0.81031,0.57346 1.76947,0.83768 2.56,1.38666 0.89307,0.62019 1.59201,1.48889 2.56,2.02667 0.78568,0.43648 2.73133,0.9916 3.14666,-0.16 0.54697,-1.51663 -0.47367,-2.12625 -1.54666,-2.82667 -1.47615,-0.9636 -3.96307,-1.62375 -4.64,-3.57333 -0.2507,-0.72204 0.53082,-1.31436 0.8,-1.92 0.44459,-1.00031 0.32,-2.13514 0.32,-3.2 1.27809,0 2.94279,-0.46562 3.68,-1.65333 0.505,-0.81361 0.64957,-2.2058 1.12,-3.14667 -0.62414,0 -1.33428,-0.10032 -1.92,0.16 -0.58447,0.25976 -0.90072,0.78606 -1.6,0.74667 -1.52422,-0.0859 -1.22537,-1.28084 -0.32,-1.86667 -1.09877,-0.7991 -2.06656,0.0926 -3.2,0.53333 -1.78642,0.69473 -3.38391,1.71097 -5.12,2.50667 -0.90408,0.41437 -1.99066,-0.12467 -2.88,0.32 -0.64465,0.32232 -1.43766,1.1153 -1.76,1.76 -1.03402,2.06806 -0.0827,6.1514 2.72,4.16" />
  </g>
  <g
     id="g210"
     inkscape:label="torch_left_3"
     transform="translate(-0.93453524,0.09611017)">
    <path
       id="path45"
       style="fill:#292929;stroke:none"
       d="m 97.13997,73.540071 c 0.52286,1.98688 2.67278,4.09567 4.8,3.2 -0.39447,-2.14143 -2.71329,-3.2 -4.8,-3.2 m 6.4,5.44 c 0.10675,0.20282 0.49683,0.7273 0.53333,0.96 0.35855,2.28569 -3.28568,0.32 -4.37333,0.32 1.18427,2.50013 1.43916,4.8 4.8,4.8 0,1.0649 -0.12459,2.19967 0.32,3.2 0.29611,0.66625 0.96275,1.14405 0.69333,1.92 -0.7389,2.12801 -3.48148,2.84486 -5.17333,3.89333 -0.84063,0.52096 -1.7754,1.39612 -1.12,2.50667 0.81578,1.38229 3.05806,0.40054 4,-0.26667 1.49549,-1.0593 2.97176,-1.96569 4.48,-2.98666 0.431,-0.29176 0.81174,-0.9327 1.28,-1.12 0.73308,-0.29323 1.2652,0.5193 1.92,0.74666 2.35928,0.8192 4.48155,-1.19706 3.84,-3.41333 3.1402,-0.6611 2.27095,-5.12238 0.26667,-6.66667 -0.92827,-0.71524 -2.10482,-0.11825 -3.14667,-0.48 -2.8863,-1.00219 -5.09051,-3.41333 -8.32,-3.41333 m 10.24,12.8 c -1.871,-0.20227 -2.88,-1.79478 -2.88,-3.52 h -0.64 c 0,1.75173 -0.99902,2.9728 -2.50667,1.28 -1.25711,-1.4115 -1.16495,-3.85914 -3.25333,-4.48 l 0.32,-1.28 3.52,1.28 v -1.28 h -0.96 v -1.28007 c 1.08377,0.11408 1.57308,0.83064 2.56,1.17333 1.66055,0.57658 3.90498,-0.63545 4.96,1.38667 0.82472,1.58071 -0.47664,2.2823 -0.85333,3.52 -0.27025,0.88796 -0.0867,2.22319 -0.26667,3.2 m -4.79997,-6.08 0.32,0.32 -0.32,-0.32" />
  </g>
  <g
     id="g201"
     inkscape:label="torch_right_2"
     transform="translate(-0.93453524,0.09611017)">
    <path
       id="path44"
       style="fill:#292929;stroke:none"
       d="m 239.21997,77.380031 -1.6,-0.64 v -0.64 l 1.6,-0.64 v -0.64 c -1.04285,-0.4391 -2.13297,-0.071 -3.2,-0.42667 -0.69967,-0.23322 -1.22033,-0.83344 -1.92,-1.06666 -1.31824,-0.43943 -5.0399,-0.52463 -6.34666,-0.0533 -1.08074,0.38977 -1.5932,1.82921 -2.61334,2.34667 -0.49328,0.25021 -1.0675,0.0451 -1.54666,0.32 -1.8624,1.06858 -1.65334,2.78991 -1.65334,4.64 0,0.66219 -0.17807,1.63899 0.16,2.24 0.65184,1.15881 2.4576,1.13461 3.30666,2.24 1.67639,2.18246 2.03715,5.39973 3.68,7.62667 0.56342,0.76374 1.71863,1.92851 2.77334,1.6 1.13686,-0.3541 0.70174,-2.63368 0.21334,-3.36 -0.70883,-1.05415 -2.72963,-3.94519 -1.97334,-5.22667 0.35598,-0.60319 0.89248,-0.50239 1.44,-0.74667 0.62854,-0.28043 1.38293,-1.06886 1.81334,-1.6 0.89928,-1.10974 1.30875,-2.66958 2.4,-3.68 1.18897,-1.1009 2.85938,-0.25068 3.46666,-2.29333 m -7.68,-2.56 -2.56,3.2 4.8,0.64 v 0.96 c -0.83201,0.26274 -1.80508,0.43649 -2.24,1.28 -0.47926,0.92946 0.0644,2.32579 -0.96,2.88 -0.89807,0.48585 -3.40508,0.71348 -3.68,-0.64 -0.25258,-1.24351 1.00029,-2.16135 1.76,-2.88 -0.53279,-0.15423 -1.04891,-0.41259 -1.6,-0.16 -1.02711,0.47076 -1.82055,2.09411 -3.2,1.28 -1.55119,-0.91546 -0.371,-3.64239 0.96,-4.16 0.7599,-0.29551 1.38899,0.38077 1.92,0.8 0.77455,-2.67575 1.87404,-4.047 4.8,-3.2" />
  </g>
  <g
     id="g200"
     inkscape:label="torch_left_2"
     transform="translate(-0.93453524,0.09611017)">
    <path
       id="path43"
       style="fill:#292929;stroke:none"
       d="m 79.21997,74.820001 v 0.64 l 1.6,0.64 v 0.64 l -1.6,0.64 c 0.539551,1.81487 1.972022,1.34873 3.2,2.29333 1.75168,1.34744 2.167578,3.65861 3.89333,4.96 0.853262,0.64345 2.051495,0.33554 2.18667,1.70667 0.126377,1.28181 -1.487002,3.39778 -2.13333,4.48 -0.453056,0.7586 -0.953134,3.10335 0.21333,3.46667 1.070078,0.3333 1.876211,-0.77452 2.50667,-1.44 0.603399,-0.63693 0.582617,-1.27192 0.96,-2.02667 0.893047,-1.7861 1.771055,-4.17742 2.98666,-5.76 0.90023,-1.17198 2.84216,-1.13075 3.36,-2.56 0.7119,-1.96482 0.36272,-5.46445 -1.54666,-6.56 -0.47872,-0.27468 -1.05243,-0.0729 -1.54667,-0.32 -1.022968,-0.51149 -1.537041,-1.72853 -2.56,-2.24 -1.203193,-0.60159 -5.125097,-0.4783 -6.4,-0.0533 -0.699697,0.23323 -1.220302,0.83343 -1.92,1.06666 -1.067011,0.35567 -2.157158,-0.0124 -3.2,0.42667 m 12.48,3.20004 c 0.469112,-0.37035 0.93103,-0.89291 1.6,-0.8 1.59145,0.22103 2.9052,3.20087 1.28,4.16 -1.37946,0.8141 -2.17289,-0.80924 -3.2,-1.28 -0.551084,-0.25258 -1.067216,0.006 -1.6,0.16 0.49084,0.46431 1.242364,0.9475 1.49333,1.6 0.856602,2.22716 -1.924199,2.72559 -3.41333,1.92 -1.024443,-0.55421 -0.480732,-1.95051 -0.96,-2.88 -0.434912,-0.84347 -1.407998,-1.01727 -2.24,-1.28 0.205879,-1.90444 3.224278,-1.30974 4.8,-1.6 l -2.56,-3.2 c 2.807041,-1.18192 4.030157,0.76216 4.8,3.2" />
  </g>
  <g
     id="g209"
     inkscape:label="torch_right_1"
     transform="translate(-0.93453524,0.09611017)">
    <path
       id="path42"
       style="fill:#292929;stroke:none"
       d="m 241.13997,74.180001 2.88,0.48 4.48,1.01333 2.24,-1.49333 v -0.64 c -2.70881,-0.85542 -8.34437,-3.69752 -9.6,0.64 m 16.32,15.68007 c 0,-1.83203 -1.00877,-2.94193 -2.56,-3.84 v -0.32 l 5.12,-2.24 v -0.64 c -0.78478,-0.22718 -1.84971,-0.12485 -2.56,-0.48 -0.94416,-0.47208 -1.6156,-1.44866 -2.56,-1.97333 -0.50523,-0.28069 -1.11932,-0.29826 -1.6,-0.58667 -1.00051,-0.60031 -1.51725,-1.99851 -2.56,-2.56 -0.46795,-0.25197 -1.0917,-0.16 -1.6,-0.16 -1.43584,0 -4.16371,-0.52723 -5.44,0.16 -2.20928,1.18962 -4.48267,4.95229 -3.04,7.46667 0.51494,0.89749 1.74764,1.37892 2.24,2.29333 0.51525,0.9569 0.42643,3.02953 0.69334,4.16 0.19639,0.8318 -0.0858,1.75556 0.16,2.56 0.22764,0.74497 0.90899,1.18803 1.17332,1.92 0.33592,0.93023 0.54897,2.44704 1.65334,2.82667 1.15258,0.39619 2.23063,-0.29483 1.81334,-1.54667 -0.24062,-0.7219 -0.90666,-1.18857 -1.12,-1.92 -0.1807,-0.61953 0.0561,-1.29754 -0.16,-1.92 -0.44689,-1.28706 -2.23975,-3.30693 -0.8,-4.74667 0.96399,-0.964 2.1307,0.12556 3.14666,0.26667 0.94143,0.13075 1.93332,-0.092 2.88,0 1.72883,0.16807 3.53717,0.76941 5.12,1.28 m -3.52,-8.32 c -1.19312,1.8439 -2.64217,0.46127 -4.16,-0.21333 -0.84611,-0.37606 -2.04199,-0.70426 -2.4,-1.70667 -0.50998,-1.42794 1.65166,-1.37711 2.4,-1.01333 0.67551,0.32837 1.21699,0.82018 1.92,1.12 0.94143,0.40149 1.40572,1.20453 2.24,1.81333 m -8.96,-1.28 v 0.32 l -1.92,3.2 c -1.74014,-0.51734 -1.28,-2.30903 -1.28,-3.84 1.44297,-0.26581 1.99371,-0.72757 3.2,0.32 m 1.6,2.29326 c 1.46637,-0.52886 5.29383,2.42529 3.2,3.62667 -1.5306,0.87822 -4.98371,-2.98337 -3.2,-3.62667 M 243.7,83.780001 h 0.32 l 0.32,1.28 c -0.80023,-0.2589 -1.12256,-0.57223 -0.64,-1.28" />
  </g>
  <g
     id="g208"
     inkscape:label="torch_left_1"
     transform="translate(-0.93453524,0.09611017)">
    <path
       id="path41"
       style="fill:#292929;stroke:none"
       d="m 67.699969,73.540001 v 0.64 c 0.66078,0.41534 1.15012,1.21438 1.92,1.49333 1.92103,0.69602 3.15744,-0.51913 4.8,-1.06666 0.858781,-0.28626 1.974923,-0.25995 2.880001,-0.42667 -1.255586,-4.33752 -6.891201,-1.49541 -9.600001,-0.64 m -9.28,9.28007 v 0.64 l 5.12,2.24 v 0.32 c -1.55121,0.89806 -2.56,2.00797 -2.56,3.84 1.58283,-0.51059 3.39117,-1.11193 5.12,-1.28 0.94664,-0.092 1.93859,0.13075 2.88,0 1.01591,-0.1411 2.18269,-1.23066 3.14667,-0.26667 0.54835,0.54835 0.46704,1.80084 0.32,2.50667 -0.17784,0.85363 -0.84931,1.42791 -1.12,2.24 -0.20667,0.62001 -0.007,1.29999 -0.21333,1.92 -0.23311,0.69931 -0.8424,1.21791 -1.06667,1.92 -0.39939,1.25026 0.64816,1.9472 1.81333,1.54667 1.28586,-0.44201 1.26366,-2.154 1.76,-3.14667 0.29664,-0.59328 0.86683,-0.94596 1.066671,-1.6 0.540215,-1.76797 0.09507,-3.93862 0.37333,-5.76 0.236387,-1.54727 1.99709,-2.0284 2.72,-3.25333 0.301846,-0.51146 0.16,-1.29911 0.16,-1.86667 0,-2.26943 -1.126299,-4.37957 -3.25333,-5.6 -0.841301,-0.48272 -2.517831,-0.16 -3.466671,-0.16 -0.98229,0 -2.63498,-0.31655 -3.52,0.16 -1.04276,0.56148 -1.55948,1.95969 -2.56,2.56 -0.48065,0.28839 -1.09476,0.30598 -1.6,0.58667 -0.94442,0.52468 -1.61583,1.50124 -2.56,1.97333 -0.71032,0.35515 -1.77519,0.25282 -2.56,0.48 m 6.08,-0.64 v -0.64 c 0.69091,-0.50418 1.17487,-1.35815 1.92,-1.70667 0.69897,-0.32693 1.25905,-0.67193 1.92,-1.06666 0.67841,-0.40516 2.78217,-0.87592 2.72,0.53333 -0.0526,1.19206 -1.54743,1.64774 -2.4,2.02667 -1.65503,0.73557 -2.30734,1.38963 -4.16,0.85333 m 12.160001,-2.24 c 0,1.89059 0.200909,2.76098 -1.22667,4 -0.791132,0.68664 -0.540234,1.161 -1.653331,0.8 l 1.120001,-1.33333 -1.440001,-2.82667 c 0.9048,-1.52171 1.709288,-0.9146 3.200001,-0.64 m -4.160001,2.88 c -0.16745,0.79539 -0.40511,1.29574 -0.96,1.92 -0.69329,0.77995 -3.52,2.89851 -3.52,0.32 0,-0.86504 0.665,-1.0094 1.22667,-1.44 1.19844,-0.91881 1.72571,-1.44321 3.25333,-0.8" />
  </g>
</svg>
